<svg xmlns="http://www.w3.org/2000/svg" xmlns:xlink="http://www.w3.org/1999/xlink" width="200" zoomAndPan="magnify" viewBox="0 0 150 30.000001" height="40" preserveAspectRatio="xMidYMid meet" version="1.2"><defs/><g id="f0648e2612"><g style="fill:#1b3455;fill-opacity:1;"><g transform="translate(33.280674, 23.431705)"><path style="stroke:none" d="M 8.265625 0.390625 C 6.765625 0.390625 5.421875 0.148438 4.234375 -0.328125 C 3.046875 -0.804688 2.101562 -1.5 1.40625 -2.40625 C 0.707031 -3.320312 0.359375 -4.414062 0.359375 -5.6875 L 4.71875 -5.6875 C 4.71875 -5.082031 4.878906 -4.59375 5.203125 -4.21875 C 5.523438 -3.84375 5.953125 -3.570312 6.484375 -3.40625 C 7.023438 -3.25 7.617188 -3.171875 8.265625 -3.171875 C 9.066406 -3.171875 9.679688 -3.3125 10.109375 -3.59375 C 10.546875 -3.875 10.765625 -4.234375 10.765625 -4.671875 C 10.765625 -5.140625 10.570312 -5.503906 10.1875 -5.765625 C 9.8125 -6.023438 9.300781 -6.25 8.65625 -6.4375 C 8.007812 -6.632812 7.273438 -6.851562 6.453125 -7.09375 C 5.460938 -7.382812 4.539062 -7.738281 3.6875 -8.15625 C 2.832031 -8.582031 2.144531 -9.140625 1.625 -9.828125 C 1.101562 -10.515625 0.84375 -11.390625 0.84375 -12.453125 C 0.84375 -13.710938 1.140625 -14.726562 1.734375 -15.5 C 2.335938 -16.28125 3.144531 -16.84375 4.15625 -17.1875 C 5.164062 -17.539062 6.289062 -17.71875 7.53125 -17.71875 C 8.894531 -17.71875 10.117188 -17.488281 11.203125 -17.03125 C 12.296875 -16.582031 13.171875 -15.9375 13.828125 -15.09375 C 14.492188 -14.257812 14.84375 -13.25 14.875 -12.0625 L 10.515625 -12.0625 C 10.421875 -12.726562 10.109375 -13.242188 9.578125 -13.609375 C 9.054688 -13.972656 8.375 -14.15625 7.53125 -14.15625 C 6.882812 -14.15625 6.332031 -14.046875 5.875 -13.828125 C 5.425781 -13.609375 5.203125 -13.253906 5.203125 -12.765625 C 5.203125 -12.234375 5.476562 -11.84375 6.03125 -11.59375 C 6.582031 -11.34375 7.398438 -11.066406 8.484375 -10.765625 C 9.304688 -10.535156 10.109375 -10.28125 10.890625 -10 C 11.671875 -9.726562 12.378906 -9.382812 13.015625 -8.96875 C 13.660156 -8.5625 14.171875 -8.039062 14.546875 -7.40625 C 14.929688 -6.78125 15.125 -6.007812 15.125 -5.09375 C 15.125 -3.425781 14.519531 -2.09375 13.3125 -1.09375 C 12.113281 -0.101562 10.429688 0.390625 8.265625 0.390625 Z M 8.265625 0.390625 "/></g></g><g style="fill:#1b3455;fill-opacity:1;"><g transform="translate(48.960145, 23.431705)"><path style="stroke:none" d="M 0.9375 0 L 0.9375 -17.328125 L 4.828125 -17.328125 L 4.828125 -10.609375 L 4.875 -10.609375 C 5.195312 -11.179688 5.671875 -11.6875 6.296875 -12.125 C 6.929688 -12.570312 7.738281 -12.796875 8.71875 -12.796875 C 10.03125 -12.796875 11.066406 -12.414062 11.828125 -11.65625 C 12.585938 -10.894531 12.96875 -9.804688 12.96875 -8.390625 L 12.96875 0 L 9.09375 0 L 9.09375 -7.15625 C 9.09375 -8.09375 8.929688 -8.738281 8.609375 -9.09375 C 8.296875 -9.457031 7.785156 -9.640625 7.078125 -9.640625 C 6.460938 -9.640625 5.929688 -9.441406 5.484375 -9.046875 C 5.046875 -8.648438 4.828125 -8.023438 4.828125 -7.171875 L 4.828125 0 Z M 0.9375 0 "/></g></g><g style="fill:#1b3455;fill-opacity:1;"><g transform="translate(62.773587, 23.431705)"><path style="stroke:none" d="M 4.4375 0.390625 C 3.125 0.390625 2.113281 0.0546875 1.40625 -0.609375 C 0.707031 -1.285156 0.359375 -2.140625 0.359375 -3.171875 C 0.359375 -4.421875 0.78125 -5.359375 1.625 -5.984375 C 2.476562 -6.617188 3.632812 -7.082031 5.09375 -7.375 C 5.625 -7.476562 6.128906 -7.585938 6.609375 -7.703125 C 7.097656 -7.816406 7.492188 -7.96875 7.796875 -8.15625 C 8.109375 -8.351562 8.265625 -8.625 8.265625 -8.96875 C 8.265625 -9.738281 7.738281 -10.125 6.6875 -10.125 C 5.988281 -10.125 5.460938 -9.988281 5.109375 -9.71875 C 4.753906 -9.445312 4.546875 -9.007812 4.484375 -8.40625 L 0.84375 -8.40625 C 0.894531 -9.195312 1.117188 -9.921875 1.515625 -10.578125 C 1.921875 -11.242188 2.550781 -11.78125 3.40625 -12.1875 C 4.269531 -12.59375 5.375 -12.796875 6.71875 -12.796875 C 8.457031 -12.796875 9.796875 -12.40625 10.734375 -11.625 C 11.671875 -10.851562 12.140625 -9.488281 12.140625 -7.53125 L 12.140625 -1.84375 C 12.140625 -1.226562 12.382812 -0.921875 12.875 -0.921875 L 12.875 0 C 12.476562 0.144531 12.097656 0.242188 11.734375 0.296875 C 11.378906 0.359375 11.003906 0.390625 10.609375 0.390625 C 9.742188 0.390625 9.15625 0.21875 8.84375 -0.125 C 8.539062 -0.476562 8.390625 -0.875 8.390625 -1.3125 L 8.34375 -1.3125 C 7.9375 -0.851562 7.390625 -0.453125 6.703125 -0.109375 C 6.015625 0.222656 5.257812 0.390625 4.4375 0.390625 Z M 5.796875 -2.28125 C 6.628906 -2.28125 7.25 -2.503906 7.65625 -2.953125 C 8.0625 -3.410156 8.265625 -3.9375 8.265625 -4.53125 L 8.265625 -6.03125 C 7.796875 -5.851562 7.132812 -5.671875 6.28125 -5.484375 C 5.519531 -5.316406 4.988281 -5.078125 4.6875 -4.765625 C 4.382812 -4.460938 4.234375 -4.117188 4.234375 -3.734375 C 4.234375 -3.234375 4.375 -2.863281 4.65625 -2.625 C 4.945312 -2.394531 5.328125 -2.28125 5.796875 -2.28125 Z M 5.796875 -2.28125 "/></g></g><g style="fill:#1b3455;fill-opacity:1;"><g transform="translate(76.17505, 23.431705)"><path style="stroke:none" d="M 5.796875 0.390625 C 4.691406 0.390625 3.734375 0.125 2.921875 -0.40625 C 2.117188 -0.945312 1.492188 -1.707031 1.046875 -2.6875 C 0.609375 -3.675781 0.390625 -4.847656 0.390625 -6.203125 C 0.390625 -7.554688 0.609375 -8.726562 1.046875 -9.71875 C 1.492188 -10.707031 2.117188 -11.46875 2.921875 -12 C 3.734375 -12.53125 4.691406 -12.796875 5.796875 -12.796875 C 6.390625 -12.796875 6.925781 -12.707031 7.40625 -12.53125 C 7.894531 -12.351562 8.304688 -12.140625 8.640625 -11.890625 C 8.972656 -11.640625 9.21875 -11.398438 9.375 -11.171875 L 9.421875 -11.171875 L 9.421875 -17.328125 L 13.296875 -17.328125 L 13.296875 0 L 9.421875 0 L 9.421875 -1.234375 L 9.375 -1.234375 C 9.21875 -1.023438 8.972656 -0.789062 8.640625 -0.53125 C 8.304688 -0.269531 7.894531 -0.0507812 7.40625 0.125 C 6.925781 0.300781 6.390625 0.390625 5.796875 0.390625 Z M 6.8125 -2.515625 C 7.601562 -2.515625 8.222656 -2.828125 8.671875 -3.453125 C 9.128906 -4.078125 9.359375 -4.992188 9.359375 -6.203125 C 9.359375 -7.410156 9.128906 -8.328125 8.671875 -8.953125 C 8.222656 -9.578125 7.601562 -9.890625 6.8125 -9.890625 C 6.019531 -9.890625 5.394531 -9.578125 4.9375 -8.953125 C 4.488281 -8.328125 4.265625 -7.410156 4.265625 -6.203125 C 4.265625 -4.992188 4.488281 -4.078125 4.9375 -3.453125 C 5.394531 -2.828125 6.019531 -2.515625 6.8125 -2.515625 Z M 6.8125 -2.515625 "/></g></g><g style="fill:#1b3455;fill-opacity:1;"><g transform="translate(90.424709, 23.431705)"><path style="stroke:none" d="M 7 0.390625 C 5.625 0.390625 4.441406 0.113281 3.453125 -0.4375 C 2.472656 -1 1.71875 -1.773438 1.1875 -2.765625 C 0.65625 -3.765625 0.390625 -4.910156 0.390625 -6.203125 C 0.390625 -7.460938 0.644531 -8.585938 1.15625 -9.578125 C 1.675781 -10.578125 2.414062 -11.363281 3.375 -11.9375 C 4.34375 -12.507812 5.476562 -12.796875 6.78125 -12.796875 C 8.207031 -12.796875 9.390625 -12.472656 10.328125 -11.828125 C 11.273438 -11.191406 11.988281 -10.300781 12.46875 -9.15625 C 12.945312 -8.007812 13.1875 -6.6875 13.1875 -5.1875 L 4.265625 -5.1875 C 4.265625 -4.3125 4.535156 -3.644531 5.078125 -3.1875 C 5.617188 -2.738281 6.238281 -2.515625 6.9375 -2.515625 C 7.59375 -2.515625 8.09375 -2.644531 8.4375 -2.90625 C 8.789062 -3.164062 9.023438 -3.445312 9.140625 -3.75 L 12.984375 -3.75 C 12.648438 -2.507812 11.988281 -1.507812 11 -0.75 C 10.019531 0.0078125 8.6875 0.390625 7 0.390625 Z M 4.265625 -7.53125 L 9.3125 -7.53125 C 9.3125 -8.394531 9.078125 -9.039062 8.609375 -9.46875 C 8.140625 -9.90625 7.53125 -10.125 6.78125 -10.125 C 6.039062 -10.125 5.4375 -9.90625 4.96875 -9.46875 C 4.5 -9.039062 4.265625 -8.394531 4.265625 -7.53125 Z M 4.265625 -7.53125 "/></g></g><g style="fill:#1b3455;fill-opacity:1;"><g transform="translate(103.147618, 23.431705)"><path style="stroke:none" d="M 0.171875 0 L 4.4375 -6.328125 L 0.65625 -12.40625 L 4.78125 -12.40625 L 6.765625 -8.828125 L 6.8125 -8.828125 L 8.796875 -12.40625 L 12.921875 -12.40625 L 9.140625 -6.328125 L 13.40625 0 L 9.046875 0 L 6.8125 -3.828125 L 6.765625 -3.828125 L 4.53125 0 Z M 0.171875 0 "/></g></g></g></svg>