<svg xmlns="http://www.w3.org/2000/svg" xmlns:xlink="http://www.w3.org/1999/xlink" width="500" zoomAndPan="magnify" viewBox="0 0 375 374.999991" height="500" preserveAspectRatio="xMidYMid meet" version="1.2"><defs><clipPath id="47721ed39e"><path d="M 72 59.628906 L 302.953125 59.628906 L 302.953125 315.378906 L 72 315.378906 Z M 72 59.628906 "/></clipPath></defs><g id="b8997f8a64"><path style=" stroke:none;fill-rule:nonzero;fill:#e2e8f0;fill-opacity:1;" d="M 193.445312 4.414062 L 216.847656 7.320312 C 263.757812 17.730469 300.390625 42.925781 326.75 82.898438 C 353.070312 123.140625 362.171875 169.378906 354.0625 221.613281 C 343.945312 271.34375 319.929688 310.277344 282.015625 338.425781 C 269.761719 347.4375 256.546875 354.699219 242.367188 360.203125 L 220.59375 366.945312 C 205.667969 370.492188 190.214844 371.871094 174.230469 371.082031 C 125.261719 367.199219 85.394531 347.164062 54.640625 310.96875 C 23.882812 274.773438 9.246094 230.675781 10.730469 178.675781 C 14.691406 126.804688 33.855469 84.476562 68.226562 51.695312 C 102.597656 18.914062 144.339844 3.15625 193.445312 4.414062 "/><g clip-rule="nonzero" clip-path="url(#47721ed39e)"><path style=" stroke:none;fill-rule:nonzero;fill:#1d3557;fill-opacity:1;" d="M 301.964844 220.179688 L 285.925781 180.75 C 285.925781 180.75 285.90625 180.699219 285.894531 180.671875 C 285.21875 179.238281 284.945312 177.640625 285.09375 176.070312 C 285.414062 172.703125 285.570312 169.484375 285.570312 166.242188 C 285.570312 137.644531 274.398438 110.789062 254.109375 90.625 C 233.976562 70.621094 207.320312 59.628906 178.960938 59.628906 C 178.738281 59.628906 178.511719 59.628906 178.285156 59.628906 C 120.394531 59.988281 72.871094 107.371094 72.351562 165.257812 C 72.121094 190.550781 80.902344 215.15625 97.078125 234.53125 C 114.496094 258.234375 118.25 279.957031 110.460938 311.996094 C 110.269531 312.792969 110.453125 313.617188 110.953125 314.257812 C 111.453125 314.898438 112.207031 315.265625 113.023438 315.265625 L 225.953125 315.265625 C 227.410156 315.265625 228.589844 314.082031 228.589844 312.625 L 228.589844 300.035156 C 228.589844 296.109375 230.160156 292.464844 233.007812 289.769531 C 235.851562 287.074219 239.570312 285.6875 243.496094 285.917969 L 259.886719 286.804688 C 267.113281 287.195312 273.476562 281.878906 274.359375 274.695312 L 279.175781 235.636719 C 279.414062 233.726562 280.789062 232.242188 282.59375 231.953125 L 295.910156 229.832031 C 298.175781 229.722656 300.242188 228.53125 301.445312 226.625 C 302.636719 224.738281 302.828125 222.328125 301.949219 220.179688 Z M 246.875 182.734375 C 246.875 185.035156 245.226562 186.992188 242.953125 187.386719 L 239.679688 187.949219 C 238.335938 188.179688 237.222656 189.070312 236.695312 190.335938 C 236.171875 191.59375 236.332031 193.015625 237.117188 194.128906 L 239.035156 196.847656 C 240.359375 198.730469 240.144531 201.277344 238.515625 202.910156 L 215.480469 225.953125 C 213.847656 227.585938 211.300781 227.800781 209.417969 226.46875 L 206.699219 224.554688 C 205.585938 223.769531 204.167969 223.609375 202.902344 224.128906 C 201.644531 224.652344 200.753906 225.765625 200.523438 227.109375 L 199.960938 230.382812 C 199.566406 232.65625 197.609375 234.304688 195.308594 234.304688 L 162.71875 234.304688 C 160.417969 234.304688 158.460938 232.65625 158.066406 230.382812 L 157.503906 227.109375 C 157.273438 225.765625 156.382812 224.652344 155.117188 224.128906 C 154.628906 223.929688 154.113281 223.824219 153.601562 223.824219 C 152.800781 223.824219 152.003906 224.074219 151.324219 224.554688 L 148.605469 226.46875 C 146.722656 227.796875 144.171875 227.578125 142.542969 225.953125 L 119.5 202.910156 C 117.867188 201.277344 117.652344 198.730469 118.984375 196.847656 L 120.898438 194.128906 C 121.683594 193.015625 121.84375 191.59375 121.324219 190.335938 C 120.800781 189.074219 119.6875 188.179688 118.34375 187.949219 L 111.148438 186.710938 L 111.148438 150.144531 C 111.148438 147.84375 112.796875 145.886719 115.070312 145.492188 L 118.34375 144.929688 C 119.691406 144.699219 120.800781 143.804688 121.324219 142.542969 C 121.84375 141.285156 121.691406 139.863281 120.898438 138.75 L 118.984375 136.03125 C 117.65625 134.148438 117.875 131.601562 119.5 129.96875 L 142.542969 106.925781 C 144.175781 105.292969 146.722656 105.078125 148.605469 106.410156 L 151.324219 108.324219 C 152.4375 109.109375 153.859375 109.269531 155.117188 108.75 C 156.378906 108.226562 157.273438 107.113281 157.503906 105.761719 L 158.066406 102.488281 C 158.460938 100.21875 160.417969 98.570312 162.71875 98.570312 L 195.308594 98.570312 C 197.609375 98.570312 199.566406 100.21875 199.960938 102.488281 L 200.523438 105.761719 C 200.753906 107.105469 201.644531 108.222656 202.910156 108.75 C 204.167969 109.265625 205.585938 109.109375 206.707031 108.324219 L 209.421875 106.410156 C 211.304688 105.082031 213.859375 105.296875 215.484375 106.925781 L 238.523438 129.96875 C 240.15625 131.601562 240.371094 134.148438 239.039062 136.03125 L 237.121094 138.75 C 236.339844 139.863281 236.179688 141.285156 236.699219 142.542969 C 237.222656 143.804688 238.335938 144.699219 239.683594 144.929688 L 242.957031 145.492188 C 245.230469 145.886719 246.878906 147.84375 246.878906 150.144531 L 246.878906 182.734375 Z M 246.875 182.734375 "/></g><path style=" stroke:none;fill-rule:nonzero;fill:#1d3557;fill-opacity:1;" d="M 193.277344 166.4375 C 193.277344 167.375 193.1875 168.304688 193.003906 169.222656 C 192.820312 170.144531 192.550781 171.035156 192.191406 171.902344 C 191.832031 172.769531 191.394531 173.589844 190.871094 174.371094 C 190.351562 175.148438 189.757812 175.871094 189.097656 176.53125 C 188.433594 177.195312 187.714844 177.785156 186.933594 178.308594 C 186.15625 178.828125 185.332031 179.269531 184.464844 179.625 C 183.601562 179.984375 182.707031 180.257812 181.789062 180.4375 C 180.867188 180.621094 179.941406 180.714844 179.003906 180.714844 C 178.066406 180.714844 177.136719 180.621094 176.21875 180.4375 C 175.300781 180.257812 174.40625 179.984375 173.542969 179.625 C 172.675781 179.269531 171.851562 178.828125 171.074219 178.308594 C 170.292969 177.785156 169.574219 177.195312 168.910156 176.53125 C 168.246094 175.871094 167.65625 175.148438 167.136719 174.371094 C 166.613281 173.589844 166.175781 172.769531 165.816406 171.902344 C 165.457031 171.035156 165.1875 170.144531 165.003906 169.222656 C 164.820312 168.304688 164.730469 167.375 164.730469 166.4375 C 164.730469 165.503906 164.820312 164.574219 165.003906 163.65625 C 165.1875 162.734375 165.457031 161.84375 165.816406 160.976562 C 166.175781 160.109375 166.613281 159.289062 167.136719 158.507812 C 167.65625 157.730469 168.246094 157.007812 168.910156 156.347656 C 169.574219 155.683594 170.292969 155.089844 171.074219 154.570312 C 171.851562 154.050781 172.675781 153.609375 173.542969 153.25 C 174.40625 152.894531 175.300781 152.621094 176.21875 152.4375 C 177.136719 152.257812 178.066406 152.164062 179.003906 152.164062 C 179.941406 152.164062 180.867188 152.257812 181.789062 152.4375 C 182.707031 152.621094 183.601562 152.894531 184.464844 153.25 C 185.332031 153.609375 186.15625 154.050781 186.933594 154.570312 C 187.714844 155.089844 188.433594 155.683594 189.097656 156.347656 C 189.757812 157.007812 190.351562 157.730469 190.871094 158.507812 C 191.394531 159.289062 191.832031 160.109375 192.191406 160.976562 C 192.550781 161.84375 192.820312 162.734375 193.003906 163.65625 C 193.1875 164.574219 193.277344 165.503906 193.277344 166.4375 Z M 193.277344 166.4375 "/><path style=" stroke:none;fill-rule:nonzero;fill:#1d3557;fill-opacity:1;" d="M 235.453125 153.78125 L 225.28125 152.027344 L 221.917969 143.914062 L 227.875 135.480469 C 228.539062 134.535156 228.429688 133.242188 227.609375 132.421875 L 213.027344 117.835938 C 212.203125 117.015625 210.914062 116.90625 209.96875 117.574219 L 201.535156 123.527344 L 193.421875 120.167969 L 191.667969 109.992188 C 191.46875 108.851562 190.480469 108.015625 189.316406 108.015625 L 168.695312 108.015625 C 167.535156 108.015625 166.546875 108.851562 166.347656 109.992188 L 164.589844 120.167969 L 156.476562 123.527344 L 148.042969 117.574219 C 147.09375 116.90625 145.800781 117.015625 144.984375 117.835938 L 130.402344 132.421875 C 129.582031 133.242188 129.472656 134.535156 130.136719 135.480469 L 136.09375 143.914062 L 132.730469 152.027344 L 122.558594 153.78125 C 121.417969 153.976562 120.578125 154.96875 120.578125 156.132812 L 120.578125 176.753906 C 120.578125 177.914062 121.417969 178.902344 122.558594 179.101562 L 132.730469 180.859375 L 136.09375 188.972656 L 130.136719 197.40625 C 129.472656 198.351562 129.582031 199.640625 130.402344 200.460938 L 144.984375 215.046875 C 145.808594 215.867188 147.097656 215.976562 148.042969 215.308594 L 156.476562 209.355469 L 164.589844 212.71875 L 166.347656 222.890625 C 166.542969 224.03125 167.535156 224.867188 168.695312 224.867188 L 189.316406 224.867188 C 190.480469 224.867188 191.464844 224.03125 191.667969 222.890625 L 193.421875 212.71875 L 201.535156 209.355469 L 209.96875 215.308594 C 210.914062 215.976562 212.210938 215.867188 213.027344 215.046875 L 227.609375 200.460938 C 228.429688 199.640625 228.539062 198.351562 227.875 197.40625 L 221.917969 188.972656 L 225.28125 180.859375 L 235.453125 179.101562 C 236.597656 178.90625 237.433594 177.914062 237.433594 176.753906 L 237.433594 156.132812 C 237.433594 154.96875 236.597656 153.984375 235.453125 153.78125 Z M 179.003906 190.152344 C 165.925781 190.152344 155.289062 179.515625 155.289062 166.4375 C 155.289062 153.363281 165.925781 142.722656 179.003906 142.722656 C 192.078125 142.722656 202.71875 153.363281 202.71875 166.4375 C 202.71875 179.515625 192.078125 190.152344 179.003906 190.152344 Z M 179.003906 190.152344 "/></g></svg>