<svg xmlns="http://www.w3.org/2000/svg" xmlns:xlink="http://www.w3.org/1999/xlink" width="500" zoomAndPan="magnify" viewBox="0 0 375 374.999991" height="500" preserveAspectRatio="xMidYMid meet" version="1.2"><defs><clipPath id="88b8405db5"><path d="M 91 59.910156 L 284 59.910156 L 284 314.910156 L 91 314.910156 Z M 91 59.910156 "/></clipPath><clipPath id="3963014499"><path d="M 227 59.910156 L 284.191406 59.910156 L 284.191406 117 L 227 117 Z M 227 59.910156 "/></clipPath><filter x="0%" y="0%" width="100%" filterUnits="objectBoundingBox" id="54f2490ef4" height="100%"><feColorMatrix values="0 0 0 0 1 0 0 0 0 1 0 0 0 0 1 0 0 0 1 0" type="matrix" in="SourceGraphic"/></filter><clipPath id="68498b01e5"><path d="M 4 0.910156 L 57 0.910156 L 57 56 L 4 56 Z M 4 0.910156 "/></clipPath><clipPath id="ae5fa1a73e"><rect x="0" width="58" y="0" height="58"/></clipPath></defs><g id="a6a4a5f0f6"><path style=" stroke:none;fill-rule:nonzero;fill:#e2e8f0;fill-opacity:1;" d="M 193.445312 4.414062 L 216.847656 7.320312 C 263.757812 17.730469 300.390625 42.925781 326.75 82.898438 C 353.070312 123.140625 362.171875 169.378906 354.0625 221.613281 C 343.945312 271.34375 319.929688 310.277344 282.015625 338.425781 C 269.761719 347.4375 256.546875 354.699219 242.367188 360.203125 L 220.59375 366.945312 C 205.667969 370.492188 190.214844 371.871094 174.230469 371.082031 C 125.261719 367.199219 85.394531 347.164062 54.640625 310.96875 C 23.882812 274.773438 9.246094 230.675781 10.730469 178.675781 C 14.691406 126.804688 33.855469 84.476562 68.226562 51.695312 C 102.597656 18.914062 144.339844 3.15625 193.445312 4.414062 "/><g clip-rule="nonzero" clip-path="url(#88b8405db5)"><path style=" stroke:none;fill-rule:nonzero;fill:#1d3557;fill-opacity:1;" d="M 282.175781 109.402344 L 236.453125 61.324219 C 235.511719 60.382812 234.566406 59.910156 233.152344 59.910156 L 102.589844 59.910156 C 96.460938 59.910156 91.277344 65.09375 91.277344 71.695312 L 91.277344 302.65625 C 91.277344 309.253906 96.460938 314.910156 102.589844 314.910156 L 271.804688 314.910156 C 277.933594 314.910156 283.117188 309.726562 283.117188 302.65625 L 283.117188 112.230469 C 283.589844 111.289062 283.117188 109.875 282.175781 109.402344 Z M 282.175781 109.402344 "/></g><g clip-rule="nonzero" clip-path="url(#3963014499)"><g mask="url(#0ef73397dc)" transform="matrix(1,0,0,1,227,59)"><g clip-path="url(#ae5fa1a73e)"><g clip-rule="nonzero" clip-path="url(#68498b01e5)"><path style=" stroke:none;fill-rule:nonzero;fill:#221f1f;fill-opacity:1;" d="M 56.589844 53.230469 L 56.589844 54.644531 C 56.117188 54.644531 55.644531 55.117188 55.175781 55.117188 L 8.980469 55.117188 C 6.625 55.117188 4.738281 53.230469 4.738281 50.875 L 4.738281 2.796875 C 4.738281 2.324219 4.738281 1.851562 5.210938 0.910156 L 6.625 0.910156 C 7.566406 0.910156 8.511719 1.382812 9.453125 2.324219 L 55.644531 50.402344 C 56.117188 50.875 56.589844 52.289062 56.589844 53.230469 Z M 56.589844 53.230469 "/></g></g><mask id="0ef73397dc"><g filter="url(#54f2490ef4)"><rect x="0" width="375" y="0" height="374.999991" style="fill:#000000;fill-opacity:0.35;stroke:none;"/></g></mask></g></g><path style=" stroke:none;fill-rule:nonzero;fill:#ffffff;fill-opacity:1;" d="M 125.214844 94.789062 L 201.101562 94.789062 L 201.101562 160.777344 L 125.214844 160.777344 Z M 125.214844 94.789062 "/><path style=" stroke:none;fill-rule:nonzero;fill:#ffffff;fill-opacity:1;" d="M 125.214844 180.105469 L 252.007812 180.105469 L 252.007812 199.429688 L 125.214844 199.429688 Z M 125.214844 180.105469 "/><path style=" stroke:none;fill-rule:nonzero;fill:#ffffff;fill-opacity:1;" d="M 125.214844 216.871094 L 220.425781 216.871094 L 220.425781 236.195312 L 125.214844 236.195312 Z M 125.214844 216.871094 "/><path style=" stroke:none;fill-rule:nonzero;fill:#ffffff;fill-opacity:1;" d="M 125.214844 255.046875 L 201.101562 255.046875 L 201.101562 274.375 L 125.214844 274.375 Z M 125.214844 255.046875 "/><path style=" stroke:none;fill-rule:nonzero;fill:#1d3557;fill-opacity:1;" d="M 145.011719 150.878906 L 134.171875 105.160156 L 143.125 105.160156 C 143.125 105.160156 149.253906 137.683594 150.195312 141.925781 C 151.140625 137.210938 152.082031 131.554688 153.496094 125.898438 L 158.210938 105.160156 L 167.636719 105.160156 C 167.636719 105.160156 175.179688 136.738281 176.121094 141.925781 C 177.0625 136.738281 183.191406 105.160156 183.191406 105.160156 L 191.675781 105.160156 L 181.304688 150.878906 L 171.40625 150.878906 C 171.40625 150.878906 163.867188 119.769531 162.921875 114.585938 C 161.980469 119.300781 155.382812 150.878906 155.382812 150.878906 Z M 145.011719 150.878906 "/></g></svg>