<svg id="price_icon_2" xmlns="http://www.w3.org/2000/svg" width="30" height="30" viewBox="0 0 30 30">
  <path id="Path_710" data-name="Path 710" d="M9.589,17.182l2.684-4.907,4.906-2.684a.879.879,0,0,0,0-1.542L12.273,5.365,9.589.457a.879.879,0,0,0-1.542,0L5.364,5.365.457,8.049a.879.879,0,0,0,0,1.542l4.907,2.684,2.684,4.907a.879.879,0,0,0,1.542,0ZM6.782,11.205a.877.877,0,0,0-.35-.349L2.71,8.82,6.433,6.783a.877.877,0,0,0,.35-.349L8.818,2.711l2.036,3.723a.878.878,0,0,0,.349.349L14.926,8.82,11.2,10.856a.878.878,0,0,0-.349.349L8.818,14.928Zm0,0" fill="#0f2844"/>
  <path id="Path_711" data-name="Path 711" d="M309.655,194.548l-3.268-1.787-1.787-3.268a.879.879,0,0,0-1.542,0l-1.787,3.268L298,194.548a.879.879,0,0,0,0,1.542l3.268,1.787,1.787,3.268a.879.879,0,0,0,1.542,0l1.787-3.268,3.268-1.787a.879.879,0,0,0,0-1.542Zm-4.686,2.26-1.139,2.084-1.139-2.084a.879.879,0,0,0-.349-.35l-2.084-1.14,2.084-1.14a.878.878,0,0,0,.349-.349l1.139-2.084,1.139,2.084a.879.879,0,0,0,.349.349l2.084,1.14-2.084,1.14A.881.881,0,0,0,304.969,196.808Zm0,0" transform="translate(-280.112 -177.959)" fill="#0f2844"/>
  <path id="Path_712" data-name="Path 712" d="M159.316,365.093l-2.057-1.125-1.125-2.057a.879.879,0,0,0-1.542,0l-1.125,2.057-2.057,1.125a.879.879,0,0,0,0,1.542l2.057,1.125,1.125,2.057a.879.879,0,0,0,1.542,0l1.125-2.057,2.057-1.125a.879.879,0,0,0,0-1.542Zm-3.476,1.6-.477.873-.477-.873a.878.878,0,0,0-.349-.349l-.873-.478.873-.477a.877.877,0,0,0,.349-.349l.477-.873.477.873a.877.877,0,0,0,.349.349l.873.477-.873.478A.878.878,0,0,0,155.84,366.691Zm0,0" transform="translate(-142.108 -340.274)" fill="#0f2844"/>
</svg>
