<svg id="price_banner_img" xmlns="http://www.w3.org/2000/svg" xmlns:xlink="http://www.w3.org/1999/xlink" width="352.837" height="300" viewBox="0 0 352.837 300">
  <defs>
    <clipPath id="clip-path">
      <rect id="Rectangle_138" data-name="Rectangle 138" width="352.837" height="300" fill="none"/>
    </clipPath>
    <clipPath id="clip-path-3">
      <rect id="Rectangle_107" data-name="Rectangle 107" width="36.218" height="23.03" fill="none"/>
    </clipPath>
    <clipPath id="clip-path-4">
      <path id="Path_565" data-name="Path 565" d="M113.013,253.267a4.6,4.6,0,0,0-4.615.008l-13.24,7.859a2.3,2.3,0,0,0,.005,3.986l12.951,7.584-2.285,2.976h6.46a13.081,13.081,0,0,0,6.522-1.743l9.718-5.663a3.392,3.392,0,0,0,.018-5.87Z" transform="translate(-94.014 -252.65)" fill="none"/>
    </clipPath>
    <linearGradient id="linear-gradient" x1="-2.762" y1="1" x2="-2.733" y2="1" gradientUnits="objectBoundingBox">
      <stop offset="0" stop-color="#dbe0ff"/>
      <stop offset="0.006" stop-color="#dbe0ff"/>
      <stop offset="0.037" stop-color="#dce1fe"/>
      <stop offset="0.69" stop-color="#f1f4fd"/>
      <stop offset="0.999" stop-color="#fcfdff"/>
      <stop offset="1" stop-color="#fcfdff"/>
    </linearGradient>
    <clipPath id="clip-path-5">
      <path id="Path_566" data-name="Path 566" d="M103.24,251.6l-8.878,5.129-2.788-1.24v10.134a4.285,4.285,0,0,0,2.127,3.7l9.778,5.7a6.174,6.174,0,0,0,6.18,0l9.553-5.618a4.285,4.285,0,0,0,2.112-3.692V255.706l-2.917,1.163-8.988-5.266a6.172,6.172,0,0,0-6.179,0" transform="translate(-91.575 -250.774)" fill="none"/>
    </clipPath>
    <linearGradient id="linear-gradient-2" x1="-3.375" y1="0.989" x2="-3.338" y2="0.989" gradientUnits="objectBoundingBox">
      <stop offset="0" stop-color="#dbe0ff"/>
      <stop offset="0.006" stop-color="#dbe0ff"/>
      <stop offset="0.333" stop-color="#ced7ff"/>
      <stop offset="1" stop-color="#b8c9ff"/>
    </linearGradient>
    <clipPath id="clip-path-7">
      <rect id="Rectangle_111" data-name="Rectangle 111" width="25.892" height="16.464" fill="none"/>
    </clipPath>
    <clipPath id="clip-path-8">
      <path id="Path_579" data-name="Path 579" d="M20.837,115.166a3.29,3.29,0,0,0-3.3.005l-9.465,5.619a1.647,1.647,0,0,0,0,2.849l9.258,5.422L15.7,131.189h4.617a9.366,9.366,0,0,0,4.662-1.246l6.947-4.049a2.424,2.424,0,0,0,.013-4.2Z" transform="translate(-7.253 -114.725)" fill="none"/>
    </clipPath>
    <linearGradient id="linear-gradient-3" x1="-0.289" y1="10.497" x2="-0.248" y2="10.497" xlink:href="#linear-gradient"/>
    <clipPath id="clip-path-9">
      <path id="Path_580" data-name="Path 580" d="M13.849,113.976,7.5,117.643l-1.993-.886V124a3.063,3.063,0,0,0,1.521,2.646l6.99,4.077a4.412,4.412,0,0,0,4.418,0l6.829-4.016a3.066,3.066,0,0,0,1.51-2.641v-7.16l-2.084.832-6.425-3.766a4.417,4.417,0,0,0-4.418,0" transform="translate(-5.51 -113.384)" fill="none"/>
    </clipPath>
    <linearGradient id="linear-gradient-4" x1="-0.284" y1="9.69" x2="-0.232" y2="9.69" xlink:href="#linear-gradient-2"/>
    <clipPath id="clip-path-11">
      <rect id="Rectangle_115" data-name="Rectangle 115" width="42.226" height="26.85" fill="none"/>
    </clipPath>
    <clipPath id="clip-path-12">
      <path id="Path_588" data-name="Path 588" d="M285.647,170.024a5.362,5.362,0,0,0-5.382.009L264.83,179.2a2.686,2.686,0,0,0,.007,4.647l15.1,8.842-2.664,3.47,7.531,0a15.235,15.235,0,0,0,7.6-2.032l11.33-6.6a3.954,3.954,0,0,0,.022-6.844Z" transform="translate(-263.495 -169.305)" fill="none"/>
    </clipPath>
    <linearGradient id="linear-gradient-5" x1="-6.655" y1="4.232" x2="-6.63" y2="4.232" xlink:href="#linear-gradient"/>
    <clipPath id="clip-path-13">
      <path id="Path_589" data-name="Path 589" d="M273.232,168.084l-10.349,5.979-3.252-1.444v11.814a4.993,4.993,0,0,0,2.48,4.316l11.4,6.649a7.2,7.2,0,0,0,7.2,0l11.137-6.549a5,5,0,0,0,2.463-4.306V172.867l-3.4,1.357-10.477-6.14a7.194,7.194,0,0,0-7.2,0" transform="translate(-259.632 -167.117)" fill="none"/>
    </clipPath>
    <linearGradient id="linear-gradient-6" x1="-8.206" y1="3.95" x2="-8.175" y2="3.95" xlink:href="#linear-gradient-2"/>
    <clipPath id="clip-path-15">
      <rect id="Rectangle_119" data-name="Rectangle 119" width="28.6" height="18.186" fill="none"/>
    </clipPath>
    <clipPath id="clip-path-16">
      <path id="Path_597" data-name="Path 597" d="M123.683,5.226a3.63,3.63,0,0,0-3.644.005l-10.455,6.207a1.82,1.82,0,0,0,0,3.147l10.227,5.988-1.8,2.35h5.1a10.319,10.319,0,0,0,5.15-1.377l7.674-4.472a2.678,2.678,0,0,0,.014-4.635Z" transform="translate(-108.68 -4.738)" fill="none"/>
    </clipPath>
    <linearGradient id="linear-gradient-7" x1="-4.049" y1="16.075" x2="-4.011" y2="16.075" xlink:href="#linear-gradient"/>
    <clipPath id="clip-path-17">
      <path id="Path_598" data-name="Path 598" d="M115.276,3.911l-7.011,4.05-2.2-.978v8a3.385,3.385,0,0,0,1.679,2.924l7.72,4.5a4.877,4.877,0,0,0,4.881,0l7.543-4.435a3.384,3.384,0,0,0,1.667-2.917V7.151l-2.3.92-7.1-4.159a4.875,4.875,0,0,0-4.879,0" transform="translate(-106.064 -3.257)" fill="none"/>
    </clipPath>
    <linearGradient id="linear-gradient-8" x1="-4.95" y1="14.801" x2="-4.903" y2="14.801" xlink:href="#linear-gradient-2"/>
    <clipPath id="clip-path-19">
      <rect id="Rectangle_123" data-name="Rectangle 123" width="22.926" height="14.578" fill="none"/>
    </clipPath>
    <clipPath id="clip-path-20">
      <path id="Path_606" data-name="Path 606" d="M131.085,37.939a2.914,2.914,0,0,0-2.922,0l-8.381,4.976a1.458,1.458,0,0,0,0,2.522l8.2,4.8-1.446,1.883h4.089a8.277,8.277,0,0,0,4.129-1.1l6.152-3.585a2.147,2.147,0,0,0,.011-3.716Z" transform="translate(-119.058 -37.549)" fill="none"/>
    </clipPath>
    <linearGradient id="linear-gradient-9" x1="-5.537" y1="17.606" x2="-5.49" y2="17.606" xlink:href="#linear-gradient"/>
    <clipPath id="clip-path-21">
      <path id="Path_607" data-name="Path 607" d="M124.344,36.886l-5.618,3.246-1.766-.784v6.414a2.716,2.716,0,0,0,1.346,2.345l6.191,3.61a3.911,3.911,0,0,0,3.91,0l6.047-3.557a2.709,2.709,0,0,0,1.337-2.337v-6.34l-1.846.737-5.688-3.334a3.914,3.914,0,0,0-3.913,0" transform="translate(-116.96 -36.362)" fill="none"/>
    </clipPath>
    <linearGradient id="linear-gradient-10" x1="-6.809" y1="16.204" x2="-6.75" y2="16.204" xlink:href="#linear-gradient-2"/>
    <clipPath id="clip-path-23">
      <rect id="Rectangle_127" data-name="Rectangle 127" width="42.339" height="34.495" fill="none"/>
    </clipPath>
    <clipPath id="clip-path-24">
      <path id="Path_614" data-name="Path 614" d="M101.354,118.951l-1.232.817a25.758,25.758,0,0,1-14.885,4.569H76.1L64.617,115.18c-8.492-4.775,5.075-2.879,5.075-9.762,0-14.967-4.707-15.576-4.707-15.576l36.334,19.6a5.415,5.415,0,0,1,.035,9.51" transform="translate(-61.822 -89.842)" fill="none"/>
    </clipPath>
    <linearGradient id="linear-gradient-11" x1="-1.267" y1="5.842" x2="-1.245" y2="5.842" xlink:href="#linear-gradient"/>
    <clipPath id="clip-path-25">
      <rect id="Rectangle_129" data-name="Rectangle 129" width="205.971" height="107.47" fill="none"/>
    </clipPath>
    <clipPath id="clip-path-26">
      <path id="Path_628" data-name="Path 628" d="M328.9,98.52l-80.52,46.514a111.636,111.636,0,0,1-55.842,14.972H174.83L140.3,139.26c-19.239-10.82,11.5-6.522,11.5-22.118,0-33.909,33.157-62.008,101.224-62.008,39.486,0,54.214-8.683,76.768,5.7A22.064,22.064,0,0,1,328.9,98.52" transform="translate(-133.971 -52.537)" fill="none"/>
    </clipPath>
    <linearGradient id="linear-gradient-12" x1="-0.602" y1="2.188" x2="-0.597" y2="2.188" xlink:href="#linear-gradient"/>
    <clipPath id="clip-path-27">
      <path id="Path_630" data-name="Path 630" d="M219.44,7.274,111.884,89.1c-5.1,3.846-7.258,10.263-6.714,16.538l.756,9.207a28.775,28.775,0,0,0,2.163,8.8,24.612,24.612,0,0,0,8.07,7.953l41.132,24.274c13.142,7.684,28.49,6.95,40.263-1.927l72.384-54.97a13.91,13.91,0,0,1,15.105-1.121,13.576,13.576,0,0,0,13.939-.759L326.642,78.4a13.6,13.6,0,0,0,5.34-15.378c-.155-.2-.3-.41-.467-.605L307.2,34.176a61.37,61.37,0,0,0-5.512-4.558L259.707,5.348A37.521,37.521,0,0,0,240.738.06a35.187,35.187,0,0,0-21.3,7.214" transform="translate(-105.088 -0.06)" fill="none"/>
    </clipPath>
    <linearGradient id="linear-gradient-13" x1="-0.501" y1="1.835" x2="-0.496" y2="1.835" xlink:href="#linear-gradient-2"/>
    <clipPath id="clip-path-30">
      <rect id="Rectangle_134" data-name="Rectangle 134" width="97.648" height="72.973" fill="none"/>
    </clipPath>
    <clipPath id="clip-path-31">
      <path id="Path_651" data-name="Path 651" d="M178.675,219.957l-29.375,16.6a46.587,46.587,0,0,1-22.919,6.028H110.571L90.716,226.746c-14.688-8.26,8.777-4.978,8.777-16.885,0-25.887,16.276-40.251,16.276-40.251l62.844,33.9a9.365,9.365,0,0,1,.061,16.448" transform="translate(-85.882 -169.61)" fill="none"/>
    </clipPath>
    <linearGradient id="linear-gradient-15" x1="-0.772" y1="1.563" x2="-0.762" y2="1.563" xlink:href="#linear-gradient"/>
    <clipPath id="clip-path-32">
      <path id="Path_695" data-name="Path 695" d="M154.411,50.282a35.352,35.352,0,0,0,8.914,23.47l10.817,12.185,1.56.045A17.661,17.661,0,0,0,193.871,68.32V49.69a73.818,73.818,0,0,1-10.635-9.353,73.708,73.708,0,0,1-8.887-11.59,35.509,35.509,0,0,1-10.156.5,35.536,35.536,0,0,1-9.782-2.358Z" transform="translate(-154.411 -26.891)" fill="none"/>
    </clipPath>
    <linearGradient id="linear-gradient-16" x1="-2.204" y1="3.944" x2="-2.189" y2="3.944" gradientUnits="objectBoundingBox">
      <stop offset="0" stop-color="#c6d4ff"/>
      <stop offset="0.999" stop-color="#eff1ff"/>
      <stop offset="1" stop-color="#eff1ff"/>
    </linearGradient>
  </defs>
  <g id="Group_267" data-name="Group 267" clip-path="url(#clip-path)">
    <g id="Group_201" data-name="Group 201">
      <g id="Group_200" data-name="Group 200" clip-path="url(#clip-path)">
        <path id="Path_564" data-name="Path 564" d="M113.653,261.361a.479.479,0,0,1-.238-.895l2.211-1.273a.479.479,0,0,1,.476.831l-2.211,1.272a.468.468,0,0,1-.238.065m6.633-3.819a.479.479,0,0,1-.238-.895l2.211-1.272a.478.478,0,0,1,.476.83l-2.211,1.273a.467.467,0,0,1-.238.064m6.632-3.818a.479.479,0,0,1-.238-.893l2.212-1.273a.478.478,0,0,1,.476.83l-2.212,1.273a.467.467,0,0,1-.238.064m6.633-3.818a.479.479,0,0,1-.238-.895l2.21-1.272a.478.478,0,1,1,.476.83l-2.21,1.273a.478.478,0,0,1-.238.064m6.633-3.818a.478.478,0,0,1-.238-.893l2.21-1.273a.478.478,0,1,1,.476.83l-2.21,1.273a.467.467,0,0,1-.238.064m6.633-3.819a.478.478,0,0,1-.238-.893l2.21-1.273a.479.479,0,0,1,.476.831l-2.21,1.272a.472.472,0,0,1-.238.064m6.631-3.817a.479.479,0,0,1-.239-.893l1.961-1.128c.071-.042.141-.087.208-.134a.479.479,0,1,1,.548.785c-.09.063-.184.123-.282.179l-1.959,1.128a.467.467,0,0,1-.238.064m2.858-5.8a.478.478,0,0,1-.375-.181,2.643,2.643,0,0,0-.648-.584l-1.277-.822a.479.479,0,0,1,.519-.8l1.275.821a3.633,3.633,0,0,1,.881.794.48.48,0,0,1-.375.777m-6.33-4.274a.486.486,0,0,1-.259-.076l-2.146-1.381a.479.479,0,1,1,.519-.8l2.145,1.38a.479.479,0,0,1-.259.881m-6.435-4.144a.481.481,0,0,1-.26-.077l-2.144-1.38a.479.479,0,1,1,.519-.806l2.144,1.381a.479.479,0,0,1-.259.881m-6.435-4.145a.491.491,0,0,1-.259-.076l-2.145-1.381a.478.478,0,1,1,.517-.8l2.146,1.38a.479.479,0,0,1-.26.881m-6.435-4.144a.488.488,0,0,1-.259-.076l-2.144-1.381a.479.479,0,0,1,.517-.806l2.145,1.381a.479.479,0,0,1-.26.881M124.24,211.8a.473.473,0,0,1-.259-.076l-2.144-1.382a.478.478,0,1,1,.517-.8l2.145,1.382a.478.478,0,0,1-.26.88m-6.435-4.144a.48.48,0,0,1-.259-.076L115.4,206.2a.479.479,0,0,1,.519-.806l2.144,1.382a.479.479,0,0,1-.259.881" transform="translate(10.894 19.764)" fill="#dbe0ff"/>
        <g id="Group_199" data-name="Group 199" transform="translate(103.063 276.97)" style="mix-blend-mode: multiply;isolation: isolate">
          <g id="Group_198" data-name="Group 198">
            <g id="Group_197" data-name="Group 197" clip-path="url(#clip-path-3)">
              <g id="Group_196" data-name="Group 196" transform="translate(0 0)">
                <g id="Group_195" data-name="Group 195" clip-path="url(#clip-path-4)">
                  <rect id="Rectangle_106" data-name="Rectangle 106" width="37.172" height="23.238" transform="translate(-0.384 -0.209)" fill="url(#linear-gradient)"/>
                </g>
              </g>
            </g>
          </g>
        </g>
      </g>
    </g>
    <g id="Group_203" data-name="Group 203" transform="translate(100.39 274.913)">
      <g id="Group_202" data-name="Group 202" clip-path="url(#clip-path-5)">
        <rect id="Rectangle_109" data-name="Rectangle 109" width="29.749" height="25.363" transform="translate(0 0)" fill="url(#linear-gradient-2)"/>
      </g>
    </g>
    <g id="Group_210" data-name="Group 210">
      <g id="Group_209" data-name="Group 209" clip-path="url(#clip-path)">
        <path id="Path_567" data-name="Path 567" d="M120.087,259.146l-10.428,6.025a6.158,6.158,0,0,1-6.18,0l-10.67-6.237a2.476,2.476,0,0,1,0-4.285l10.431-6.025a6.177,6.177,0,0,1,2.29-.775,6.089,6.089,0,0,1,1.6,0,6.214,6.214,0,0,1,2.292.775l10.667,6.238a2.422,2.422,0,0,1,.713.614,2.476,2.476,0,0,1-.713,3.67" transform="translate(8.815 23.853)" fill="#f7f9fe"/>
        <path id="Path_568" data-name="Path 568" d="M120.087,258.4l-10.428,6.025a6.163,6.163,0,0,1-6.18,0l-10.67-6.238a2.475,2.475,0,0,1,0-4.284l10.431-6.025a6.18,6.18,0,0,1,6.18,0l10.667,6.238a2.434,2.434,0,0,1,.713.613,2.477,2.477,0,0,1-.713,3.671" transform="translate(8.815 23.78)" fill="#e2e9fb"/>
        <path id="Path_569" data-name="Path 569" d="M110.2,251.2a1.26,1.26,0,0,1-.673.144c-6.708-.231-11.707,2.741-11.142,6.624.046.316-.358.556-.9.537s-1.023-.289-1.069-.605c-.657-4.512,5.151-7.965,12.948-7.7.545.019,1.024.289,1.07.605a.4.4,0,0,1-.23.394" transform="translate(9.276 24.083)" fill="#b8c9ff"/>
        <path id="Path_570" data-name="Path 570" d="M110.179,253.659a1.261,1.261,0,0,1-.673.144,9.574,9.574,0,0,0-5.13,1.091,3,3,0,0,0-1.752,3c.045.316-.358.556-.9.537s-1.024-.289-1.07-.605c-.214-1.468.572-2.813,2.212-3.789a12.1,12.1,0,0,1,6.477-1.377c.545.019,1.024.289,1.07.605a.4.4,0,0,1-.23.394" transform="translate(9.685 24.32)" fill="#b8c9ff"/>
        <path id="Path_571" data-name="Path 571" d="M110.079,256.137a1.259,1.259,0,0,1-.673.144c-1.507-.053-2.631.615-2.5,1.488.046.316-.358.556-.9.537s-1.023-.289-1.069-.605c-.219-1.5,1.715-2.651,4.309-2.562.545.019,1.024.289,1.07.605a.4.4,0,0,1-.23.394" transform="translate(10.099 24.559)" fill="#b8c9ff"/>
        <path id="Path_572" data-name="Path 572" d="M111.142,257.538c.661.374.744.946.186,1.278a2.447,2.447,0,0,1-2.209-.076c-.662-.374-.745-.946-.186-1.278a2.447,2.447,0,0,1,2.209.076" transform="translate(10.45 24.761)" fill="#b8c9ff"/>
        <path id="Path_573" data-name="Path 573" d="M20.982,120.476a.474.474,0,0,1-.414-.24.479.479,0,0,1,.176-.653l2.212-1.271a.478.478,0,1,1,.476.829l-2.212,1.272a.478.478,0,0,1-.238.064m6.637-3.813a.478.478,0,0,1-.238-.893l2.211-1.273a.479.479,0,0,1,.476.831L27.856,116.6a.478.478,0,0,1-.237.065m6.635-3.815a.479.479,0,0,1-.239-.893l2.212-1.272a.478.478,0,1,1,.476.83l-2.211,1.272a.473.473,0,0,1-.238.064m6.636-3.815a.478.478,0,0,1-.238-.892l2.211-1.273a.479.479,0,0,1,.476.831l-2.211,1.271a.481.481,0,0,1-.238.064m6.636-3.814a.478.478,0,0,1-.238-.893l2.211-1.272a.479.479,0,0,1,.477.83l-2.212,1.273a.477.477,0,0,1-.238.062m6.636-3.814a.478.478,0,0,1-.238-.893l2.21-1.272a.479.479,0,1,1,.477.83L54.4,101.342a.478.478,0,0,1-.238.064" transform="translate(1.974 9.547)" fill="#dbe0ff"/>
        <path id="Path_574" data-name="Path 574" d="M62.847,162.079a.479.479,0,0,1-.239-.893l1.106-.637a.479.479,0,0,1,.478.83l-1.106.637a.473.473,0,0,1-.239.064" transform="translate(6.004 15.448)" fill="#dbe0ff"/>
        <path id="Path_575" data-name="Path 575" d="M67.386,159.8a.479.479,0,0,1-.239-.893l1.936-1.116a.479.479,0,0,1,.478.83l-1.935,1.116a.481.481,0,0,1-.24.064m5.807-3.348a.479.479,0,0,1-.239-.893l1.935-1.117a.479.479,0,1,1,.478.83l-1.935,1.117a.485.485,0,0,1-.239.064" transform="translate(6.44 14.86)" fill="#dbe0ff"/>
        <path id="Path_576" data-name="Path 576" d="M77.98,155.747a.479.479,0,0,1-.239-.893l1.935-1.115a.479.479,0,1,1,.479.83l-1.936,1.115a.473.473,0,0,1-.239.064m5.806-3.348a.479.479,0,0,1-.239-.893l1.936-1.116a.479.479,0,0,1,.478.83l-1.935,1.116a.48.48,0,0,1-.24.064m5.807-3.347a.479.479,0,0,1-.239-.895l1.935-1.116a.479.479,0,0,1,.479.83l-1.936,1.117a.485.485,0,0,1-.239.064M95.4,145.7a.479.479,0,0,1-.24-.895l1.936-1.116a.479.479,0,0,1,.478.83l-1.935,1.117a.491.491,0,0,1-.239.064m5.806-3.349a.479.479,0,0,1-.239-.895l1.935-1.115a.479.479,0,0,1,.479.83l-1.936,1.116a.485.485,0,0,1-.239.064m5.807-3.348a.479.479,0,0,1-.24-.893L108.708,137a.479.479,0,0,1,.478.83l-1.935,1.116a.479.479,0,0,1-.239.064m5.806-3.348a.479.479,0,0,1-.239-.893l1.935-1.116a.479.479,0,0,1,.479.83l-1.936,1.116a.473.473,0,0,1-.239.064m5.807-3.348a.479.479,0,0,1-.24-.893l1.936-1.116a.479.479,0,0,1,.478.83l-1.935,1.116a.479.479,0,0,1-.239.064m5.806-3.348a.479.479,0,0,1-.239-.893l1.935-1.117a.479.479,0,0,1,.479.83L124.67,128.9a.474.474,0,0,1-.239.064" transform="translate(7.46 12.214)" fill="#dbe0ff"/>
        <path id="Path_577" data-name="Path 577" d="M125.648,125.867a.479.479,0,0,1-.239-.893l1.105-.637a.479.479,0,0,1,.478.83l-1.105.637a.474.474,0,0,1-.239.064" transform="translate(12.049 11.962)" fill="#dbe0ff"/>
        <path id="Path_578" data-name="Path 578" d="M61.162,191.664a.479.479,0,0,1-.239-.895l2.21-1.273a.479.479,0,0,1,.479.83L61.4,191.6a.473.473,0,0,1-.239.064m6.63-3.823a.479.479,0,0,1-.239-.895l2.21-1.275a.479.479,0,0,1,.478.831l-2.209,1.275a.492.492,0,0,1-.24.064m6.63-3.825a.479.479,0,0,1-.239-.893l2.21-1.274a.48.48,0,0,1,.479.831l-2.211,1.273a.473.473,0,0,1-.239.064m6.631-3.823a.479.479,0,0,1-.24-.893l2.21-1.274a.479.479,0,0,1,.478.83l-2.209,1.274a.48.48,0,0,1-.239.064m6.629-3.823a.479.479,0,0,1-.239-.893l2.21-1.275a.479.479,0,0,1,.479.83l-2.211,1.275a.474.474,0,0,1-.239.064m6.631-3.823a.479.479,0,0,1-.24-.893l2.21-1.275a.479.479,0,0,1,.478.83l-2.209,1.275a.479.479,0,0,1-.239.064m6.63-3.824a.479.479,0,0,1-.239-.893l2.209-1.274a.479.479,0,1,1,.479.83l-2.21,1.274a.474.474,0,0,1-.239.064m6.63-3.823a.478.478,0,0,1-.239-.893l2.21-1.274a.479.479,0,1,1,.478.83l-2.21,1.274a.476.476,0,0,1-.239.064m48.836,0a8.615,8.615,0,0,1-1.689-.17.476.476,0,0,1-.374-.563.469.469,0,0,1,.562-.374,7.717,7.717,0,0,0,1.5.149,7.567,7.567,0,0,0,.89-.049.492.492,0,0,1,.528.422.481.481,0,0,1-.422.531,8.264,8.264,0,0,1-1,.055m5.548-2.079a.478.478,0,0,1-.281-.866l2.068-1.5a.478.478,0,0,1,.56.775l-2.068,1.5a.475.475,0,0,1-.28.091m-11.726-.258a.471.471,0,0,1-.242-.066l-2.2-1.3a.479.479,0,0,1,.486-.826l2.2,1.3a.479.479,0,0,1-.243.891M114.2,161.079a.479.479,0,0,1-.239-.893l2.21-1.275a.479.479,0,0,1,.478.83l-2.21,1.275a.474.474,0,0,1-.239.064m29.439-2.408a.471.471,0,0,1-.242-.066l-2.2-1.3a.478.478,0,1,1,.486-.824l2.2,1.3a.479.479,0,0,1-.243.891m24.515-.338a.473.473,0,0,1-.387-.2.478.478,0,0,1,.106-.668l2.066-1.5a.479.479,0,0,1,.561.776l-2.066,1.5a.476.476,0,0,1-.281.091m-47.323-1.077a.478.478,0,0,1-.239-.893l2.21-1.276a.479.479,0,1,1,.478.831l-2.21,1.275a.474.474,0,0,1-.239.064m16.219-2.478a.473.473,0,0,1-.242-.067l-1.846-1.091c-.107-.064-.218-.123-.33-.179a.479.479,0,0,1,.431-.855c.129.066.258.136.384.209l1.847,1.091a.479.479,0,0,1-.243.891m37.3-.935a.478.478,0,0,1-.281-.866l2.066-1.5a.478.478,0,1,1,.56.775l-2.066,1.5a.475.475,0,0,1-.28.091m-46.886-.4a.479.479,0,0,1-.212-.908,8.626,8.626,0,0,1,2.564-.806.471.471,0,0,1,.545.4.48.48,0,0,1-.4.545,7.694,7.694,0,0,0-2.284.717.479.479,0,0,1-.212.049m53.085-4.09a.479.479,0,0,1-.28-.867l2.065-1.5a.478.478,0,0,1,.561.775l-2.066,1.5a.484.484,0,0,1-.281.091m6.2-4.49a.474.474,0,0,1-.388-.2.478.478,0,0,1,.107-.668l2.068-1.5a.478.478,0,1,1,.56.775l-2.068,1.5a.475.475,0,0,1-.28.091m6.2-4.488a.473.473,0,0,1-.387-.2.478.478,0,0,1,.106-.668l2.068-1.5a.479.479,0,0,1,.561.776l-2.068,1.5a.479.479,0,0,1-.281.091" transform="translate(5.841 13.276)" fill="#dbe0ff"/>
        <g id="Group_208" data-name="Group 208" transform="translate(7.952 125.768)" style="mix-blend-mode: multiply;isolation: isolate">
          <g id="Group_207" data-name="Group 207">
            <g id="Group_206" data-name="Group 206" clip-path="url(#clip-path-7)">
              <g id="Group_205" data-name="Group 205" transform="translate(0 0)">
                <g id="Group_204" data-name="Group 204" clip-path="url(#clip-path-8)">
                  <rect id="Rectangle_110" data-name="Rectangle 110" width="26.573" height="16.613" transform="translate(-0.275 -0.149)" fill="url(#linear-gradient-3)"/>
                </g>
              </g>
            </g>
          </g>
        </g>
      </g>
    </g>
    <g id="Group_212" data-name="Group 212" transform="translate(6.04 124.298)">
      <g id="Group_211" data-name="Group 211" clip-path="url(#clip-path-9)">
        <rect id="Rectangle_113" data-name="Rectangle 113" width="21.266" height="18.132" transform="translate(0 0)" fill="url(#linear-gradient-4)"/>
      </g>
    </g>
    <g id="Group_219" data-name="Group 219">
      <g id="Group_218" data-name="Group 218" clip-path="url(#clip-path)">
        <path id="Path_581" data-name="Path 581" d="M25.893,119.368l-7.455,4.307a4.407,4.407,0,0,1-4.418,0l-7.628-4.458a1.77,1.77,0,0,1,0-3.063l7.458-4.307a4.4,4.4,0,0,1,1.637-.555,4.323,4.323,0,0,1,1.141,0,4.426,4.426,0,0,1,1.639.555l7.626,4.458a1.732,1.732,0,0,1,.51.439,1.771,1.771,0,0,1-.51,2.624" transform="translate(0.53 10.709)" fill="#f7f9fe"/>
        <path id="Path_582" data-name="Path 582" d="M25.893,118.832l-7.455,4.307a4.407,4.407,0,0,1-4.418,0l-7.628-4.459a1.77,1.77,0,0,1,0-3.063l7.458-4.307a4.4,4.4,0,0,1,1.637-.555,4.324,4.324,0,0,1,1.141,0,4.425,4.425,0,0,1,1.639.555l7.626,4.458a1.732,1.732,0,0,1,.51.438,1.771,1.771,0,0,1-.51,2.624" transform="translate(0.53 10.658)" fill="#e2e9fb"/>
        <path id="Path_583" data-name="Path 583" d="M18.825,113.693a.9.9,0,0,1-.481.1c-4.8-.164-8.369,1.96-7.965,4.736.033.226-.257.4-.646.384s-.731-.206-.764-.432c-.47-3.226,3.682-5.7,9.257-5.5.389.013.731.206.764.432a.281.281,0,0,1-.164.282" transform="translate(0.86 10.874)" fill="#b8c9ff"/>
        <path id="Path_584" data-name="Path 584" d="M18.809,115.446a.894.894,0,0,1-.481.1,6.842,6.842,0,0,0-3.667.781,2.145,2.145,0,0,0-1.253,2.145c.033.225-.257.4-.646.384s-.732-.207-.765-.432a2.714,2.714,0,0,1,1.582-2.709,8.645,8.645,0,0,1,4.631-.984c.389.013.731.206.764.432a.283.283,0,0,1-.164.282" transform="translate(1.152 11.043)" fill="#b8c9ff"/>
        <path id="Path_585" data-name="Path 585" d="M18.738,117.218a.894.894,0,0,1-.481.1c-1.078-.036-1.88.441-1.79,1.064.033.226-.255.4-.646.384s-.731-.206-.764-.432c-.157-1.074,1.226-1.9,3.082-1.832.389.013.731.206.764.432a.283.283,0,0,1-.164.282" transform="translate(1.448 11.214)" fill="#b8c9ff"/>
        <path id="Path_586" data-name="Path 586" d="M19.5,118.219c.472.268.533.676.133.914a1.75,1.75,0,0,1-1.579-.055c-.472-.268-.533-.676-.133-.914a1.75,1.75,0,0,1,1.579.055" transform="translate(1.699 11.359)" fill="#b8c9ff"/>
        <path id="Path_587" data-name="Path 587" d="M269.531,174.719a.474.474,0,0,1-.239-.064l-.7-.4a.479.479,0,0,1,.478-.831l.7.406a.479.479,0,0,1-.239.893m-5.125-2.95a.467.467,0,0,1-.238-.064l-2.211-1.273a.478.478,0,0,1,.476-.83l2.211,1.273a.479.479,0,0,1-.238.893m-6.632-3.819a.467.467,0,0,1-.238-.064l-2.212-1.273a.478.478,0,0,1,.476-.83l2.212,1.273a.479.479,0,0,1-.238.893m-6.633-3.817a.47.47,0,0,1-.238-.064l-2.21-1.273a.478.478,0,1,1,.476-.83l2.21,1.272a.479.479,0,0,1-.238.895m-6.633-3.819a.47.47,0,0,1-.238-.064l-2.21-1.273a.478.478,0,0,1,.476-.83l2.21,1.273a.478.478,0,0,1-.238.893m-6.631-3.817a.492.492,0,0,1-.24-.064l-2.211-1.274a.479.479,0,0,1,.478-.831l2.212,1.274a.479.479,0,0,1-.239.895m-6.633-3.819a.467.467,0,0,1-.238-.064l-2.211-1.273a.478.478,0,0,1,.476-.83l2.211,1.273a.479.479,0,0,1-.238.893m-6.633-3.819a.467.467,0,0,1-.238-.064l-2.211-1.273a.478.478,0,0,1,.476-.83l2.211,1.273a.479.479,0,0,1-.238.893m-6.633-3.817a.478.478,0,0,1-.238-.064l-2.21-1.273a.478.478,0,1,1,.475-.83l2.211,1.272a.479.479,0,0,1-.238.895m-6.632-3.819a.47.47,0,0,1-.238-.064l-2.211-1.273a.478.478,0,1,1,.475-.83l2.212,1.273a.478.478,0,0,1-.238.893M204.71,137.4a.487.487,0,0,1-.239-.062l-2.21-1.275a.479.479,0,1,1,.478-.83l2.211,1.274a.479.479,0,0,1-.24.893m-6.632-3.818a.467.467,0,0,1-.238-.064l-2.211-1.273a.478.478,0,0,1,.476-.83l2.21,1.273a.478.478,0,0,1-.237.893m-6.632-3.819a.467.467,0,0,1-.238-.064l-2.212-1.273a.478.478,0,0,1,.476-.83l2.212,1.273a.479.479,0,0,1-.238.893m-6.633-3.817a.478.478,0,0,1-.238-.064l-2.211-1.273a.478.478,0,0,1,.476-.83l2.211,1.272a.479.479,0,0,1-.238.895m-6.633-3.819a.467.467,0,0,1-.238-.064l-2.211-1.273a.479.479,0,0,1,.477-.83l2.21,1.273a.479.479,0,0,1-.238.893" transform="translate(16.892 11.541)" fill="#dbe0ff"/>
        <g id="Group_217" data-name="Group 217" transform="translate(288.859 185.601)" style="mix-blend-mode: multiply;isolation: isolate">
          <g id="Group_216" data-name="Group 216">
            <g id="Group_215" data-name="Group 215" clip-path="url(#clip-path-11)">
              <g id="Group_214" data-name="Group 214" transform="translate(0 0.001)">
                <g id="Group_213" data-name="Group 213" clip-path="url(#clip-path-12)">
                  <rect id="Rectangle_114" data-name="Rectangle 114" width="43.336" height="27.093" transform="translate(-0.448 -0.243)" fill="url(#linear-gradient-5)"/>
                </g>
              </g>
            </g>
          </g>
        </g>
      </g>
    </g>
    <g id="Group_221" data-name="Group 221" transform="translate(284.624 183.203)">
      <g id="Group_220" data-name="Group 220" clip-path="url(#clip-path-13)">
        <rect id="Rectangle_117" data-name="Rectangle 117" width="34.683" height="29.569" transform="translate(0 0)" fill="url(#linear-gradient-6)"/>
      </g>
    </g>
    <g id="Group_228" data-name="Group 228">
      <g id="Group_227" data-name="Group 227" clip-path="url(#clip-path)">
        <path id="Path_590" data-name="Path 590" d="M261.075,176.878l12.157,7.025a7.181,7.181,0,0,0,7.2,0l12.439-7.273a2.885,2.885,0,0,0,0-4.995l-12.161-7.025a7.21,7.21,0,0,0-7.2,0l-12.435,7.273a2.829,2.829,0,0,0-.831.715,2.888,2.888,0,0,0,.831,4.28" transform="translate(24.992 15.752)" fill="#f7f9fe"/>
        <path id="Path_591" data-name="Path 591" d="M261.075,176l12.157,7.025a7.181,7.181,0,0,0,7.2,0l12.439-7.273a2.885,2.885,0,0,0,0-4.995l-12.161-7.025a7.21,7.21,0,0,0-7.2,0l-12.435,7.273a2.83,2.83,0,0,0-.831.715,2.888,2.888,0,0,0,.831,4.28" transform="translate(24.992 15.668)" fill="#e2e9fb"/>
        <path id="Path_592" data-name="Path 592" d="M270.995,167.62a1.47,1.47,0,0,0,.785.167c7.821-.269,13.648,3.2,12.99,7.723-.053.367.419.648,1.053.626s1.194-.338,1.246-.7c.766-5.261-6.006-9.288-15.1-8.975-.636.022-1.194.338-1.248.7a.463.463,0,0,0,.269.459" transform="translate(26.059 16.021)" fill="#b8c9ff"/>
        <path id="Path_593" data-name="Path 593" d="M270.583,170.48a1.47,1.47,0,0,0,.785.167,11.176,11.176,0,0,1,5.981,1.272c1.514.9,2.241,2.143,2.043,3.5-.054.367.418.648,1.052.626s1.194-.338,1.248-.7c.249-1.711-.668-3.28-2.581-4.417a14.092,14.092,0,0,0-7.55-1.606c-.636.022-1.194.338-1.248.7a.463.463,0,0,0,.269.459" transform="translate(26.02 16.297)" fill="#b8c9ff"/>
        <path id="Path_594" data-name="Path 594" d="M270.25,173.37a1.47,1.47,0,0,0,.785.167c1.757-.06,3.066.718,2.918,1.735-.053.368.418.648,1.053.626s1.194-.338,1.246-.7c.255-1.752-2-3.091-5.024-2.987-.636.022-1.194.338-1.248.7a.463.463,0,0,0,.269.459" transform="translate(25.988 16.576)" fill="#b8c9ff"/>
        <path id="Path_595" data-name="Path 595" d="M268.777,175c-.771.436-.868,1.1-.217,1.491a2.852,2.852,0,0,0,2.575-.089c.772-.436.868-1.1.217-1.491a2.852,2.852,0,0,0-2.575.089" transform="translate(25.81 16.811)" fill="#b8c9ff"/>
        <path id="Path_596" data-name="Path 596" d="M178.18,51.031a.485.485,0,0,1-.241-.064l-2.21-1.273a.479.479,0,0,1,.478-.83l2.211,1.273a.479.479,0,0,1-.238.893m-6.635-3.818a.477.477,0,0,1-.239-.064L169.1,45.877a.479.479,0,0,1,.479-.83l2.21,1.273a.479.479,0,0,1-.239.893m-6.632-3.818a.482.482,0,0,1-.239-.064l-2.211-1.273a.479.479,0,1,1,.478-.831l2.211,1.274a.479.479,0,0,1,.174.653.473.473,0,0,1-.413.24m-6.633-3.818a.471.471,0,0,1-.237-.064L155.83,38.24a.479.479,0,0,1,.477-.831l2.211,1.274a.478.478,0,0,1,.176.653.472.472,0,0,1-.414.24m-6.632-3.818a.482.482,0,0,1-.239-.064L149.2,34.422a.48.48,0,0,1,.479-.831l2.209,1.274a.478.478,0,0,1-.238.893m-6.635-3.818a.491.491,0,0,1-.239-.064L142.565,30.6a.479.479,0,1,1,.478-.83l2.211,1.274a.479.479,0,0,1-.241.893m-6.633-3.819a.483.483,0,0,1-.237-.064l-2.211-1.273a.479.479,0,0,1,.477-.83l2.211,1.273a.481.481,0,0,1,.175.653.475.475,0,0,1-.415.24m-6.63-3.818a.482.482,0,0,1-.239-.064L129.3,22.966a.478.478,0,1,1,.475-.83l2.212,1.273a.479.479,0,0,1-.237.893m-6.633-3.818a.479.479,0,0,1-.239-.064l-2.21-1.273a.478.478,0,1,1,.475-.83l2.211,1.273a.479.479,0,0,1-.237.893m-6.635-3.818a.481.481,0,0,1-.238-.064l-2.211-1.273a.479.479,0,0,1,.477-.83l2.211,1.273a.479.479,0,0,1-.239.893" transform="translate(11.146 1.39)" fill="#dbe0ff"/>
        <g id="Group_226" data-name="Group 226" transform="translate(119.141 5.194)" style="mix-blend-mode: multiply;isolation: isolate">
          <g id="Group_225" data-name="Group 225">
            <g id="Group_224" data-name="Group 224" clip-path="url(#clip-path-15)">
              <g id="Group_223" data-name="Group 223" transform="translate(0.001 0)">
                <g id="Group_222" data-name="Group 222" clip-path="url(#clip-path-16)">
                  <rect id="Rectangle_118" data-name="Rectangle 118" width="29.352" height="18.35" transform="translate(-0.303 -0.165)" fill="url(#linear-gradient-7)"/>
                </g>
              </g>
            </g>
          </g>
        </g>
      </g>
    </g>
    <g id="Group_230" data-name="Group 230" transform="translate(116.274 3.571)">
      <g id="Group_229" data-name="Group 229" clip-path="url(#clip-path-17)">
        <rect id="Rectangle_121" data-name="Rectangle 121" width="23.491" height="20.028" transform="translate(0 0)" fill="url(#linear-gradient-8)"/>
      </g>
    </g>
    <g id="Group_237" data-name="Group 237">
      <g id="Group_236" data-name="Group 236" clip-path="url(#clip-path)">
        <path id="Path_599" data-name="Path 599" d="M107.041,9.868l8.234,4.758a4.864,4.864,0,0,0,4.879,0L128.58,9.7a1.955,1.955,0,0,0,0-3.383l-8.237-4.758a4.881,4.881,0,0,0-4.879,0l-8.423,4.925a1.9,1.9,0,0,0-.562.485,1.955,1.955,0,0,0,.562,2.9" transform="translate(10.21 0.087)" fill="#f7f9fe"/>
        <path id="Path_600" data-name="Path 600" d="M107.041,9.275l8.234,4.758a4.864,4.864,0,0,0,4.879,0l8.426-4.925a1.955,1.955,0,0,0,0-3.383L120.343.966a4.881,4.881,0,0,0-4.879,0l-8.423,4.925a1.9,1.9,0,0,0-.562.485,1.955,1.955,0,0,0,.562,2.9" transform="translate(10.21 0.03)" fill="#e2e9fb"/>
        <path id="Path_601" data-name="Path 601" d="M113.76,3.6a.992.992,0,0,0,.532.113c5.3-.182,9.245,2.165,8.8,5.231-.036.249.283.439.713.423s.808-.228.845-.477c.517-3.564-4.069-6.29-10.226-6.079-.43.014-.808.228-.844.477a.314.314,0,0,0,.182.311" transform="translate(10.933 0.269)" fill="#b8c9ff"/>
        <path id="Path_602" data-name="Path 602" d="M113.481,5.535a.992.992,0,0,0,.532.113,7.562,7.562,0,0,1,4.051.862,2.375,2.375,0,0,1,1.385,2.37c-.036.249.283.439.713.424s.808-.229.845-.478a3,3,0,0,0-1.747-2.992,9.541,9.541,0,0,0-5.114-1.087c-.431.014-.809.228-.845.477a.314.314,0,0,0,.182.311" transform="translate(10.906 0.456)" fill="#b8c9ff"/>
        <path id="Path_603" data-name="Path 603" d="M113.255,7.492a.992.992,0,0,0,.532.113c1.191-.041,2.077.487,1.977,1.175-.036.249.283.44.714.424s.808-.228.844-.478c.173-1.186-1.354-2.094-3.4-2.023-.431.014-.809.228-.845.477a.314.314,0,0,0,.182.311" transform="translate(10.884 0.645)" fill="#b8c9ff"/>
        <path id="Path_604" data-name="Path 604" d="M112.258,8.6c-.522.295-.588.748-.147,1.01a1.931,1.931,0,0,0,1.744-.06c.523-.295.588-.748.147-1.01a1.934,1.934,0,0,0-1.744.06" transform="translate(10.764 0.805)" fill="#b8c9ff"/>
        <path id="Path_605" data-name="Path 605" d="M159.13,65.4a.478.478,0,0,1-.238-.064l-2.212-1.274a.478.478,0,0,1,.476-.83l2.212,1.273a.479.479,0,0,1-.238.895M152.5,61.581a.478.478,0,0,1-.238-.064l-2.21-1.273a.478.478,0,1,1,.476-.83l2.21,1.273a.478.478,0,0,1-.238.893m-6.633-3.818a.481.481,0,0,1-.238-.064l-2.21-1.273a.478.478,0,0,1,.476-.83l2.21,1.273a.478.478,0,0,1-.238.893m-6.631-3.818a.478.478,0,0,1-.238-.064l-2.212-1.274a.478.478,0,0,1,.476-.83l2.212,1.273a.479.479,0,0,1-.238.895M132.6,50.126a.485.485,0,0,1-.239-.064l-2.211-1.274a.479.479,0,0,1,.478-.83l2.211,1.274a.479.479,0,0,1-.239.893m-6.633-3.819a.478.478,0,0,1-.238-.064l-2.211-1.273a.478.478,0,0,1,.476-.83l2.211,1.273a.479.479,0,0,1-.238.893" transform="translate(11.866 4.243)" fill="#dbe0ff"/>
        <g id="Group_235" data-name="Group 235" transform="translate(130.518 41.163)" style="mix-blend-mode: multiply;isolation: isolate">
          <g id="Group_234" data-name="Group 234">
            <g id="Group_233" data-name="Group 233" clip-path="url(#clip-path-19)">
              <g id="Group_232" data-name="Group 232" transform="translate(0 0)">
                <g id="Group_231" data-name="Group 231" clip-path="url(#clip-path-20)">
                  <rect id="Rectangle_122" data-name="Rectangle 122" width="23.53" height="14.71" transform="translate(-0.243 -0.131)" fill="url(#linear-gradient-9)"/>
                </g>
              </g>
            </g>
          </g>
        </g>
      </g>
    </g>
    <g id="Group_239" data-name="Group 239" transform="translate(128.218 39.862)">
      <g id="Group_238" data-name="Group 238" clip-path="url(#clip-path-21)">
        <rect id="Rectangle_125" data-name="Rectangle 125" width="18.832" height="16.054" transform="translate(0 0)" fill="url(#linear-gradient-10)"/>
      </g>
    </g>
    <g id="Group_251" data-name="Group 251">
      <g id="Group_250" data-name="Group 250" clip-path="url(#clip-path)">
        <path id="Path_608" data-name="Path 608" d="M117.744,41.661l6.6,3.814a3.9,3.9,0,0,0,3.911,0l6.754-3.948a1.567,1.567,0,0,0,0-2.712L128.407,35a3.919,3.919,0,0,0-1.449-.49,3.805,3.805,0,0,0-1.011,0A3.943,3.943,0,0,0,124.5,35l-6.752,3.949a1.562,1.562,0,0,0,0,2.712" transform="translate(11.258 3.319)" fill="#f7f9fe"/>
        <path id="Path_609" data-name="Path 609" d="M117.744,41.186l6.6,3.814a3.9,3.9,0,0,0,3.911,0l6.754-3.949a1.566,1.566,0,0,0,0-2.711l-6.6-3.815a3.941,3.941,0,0,0-1.449-.491,3.9,3.9,0,0,0-1.011,0,3.965,3.965,0,0,0-1.451.491l-6.752,3.949a1.542,1.542,0,0,0-.451.388,1.568,1.568,0,0,0,.451,2.324" transform="translate(11.258 3.273)" fill="#e2e9fb"/>
        <path id="Path_610" data-name="Path 610" d="M129.043,36.619a.8.8,0,0,1-.426.091c-4.246-.147-7.411,1.735-7.052,4.193.029.2-.227.352-.572.34s-.648-.183-.677-.384c-.415-2.856,3.262-5.042,8.2-4.873.344.012.647.183.676.384a.252.252,0,0,1-.146.249" transform="translate(11.578 3.463)" fill="#b8c9ff"/>
        <path id="Path_611" data-name="Path 611" d="M129.03,38.172a.8.8,0,0,1-.426.091,6.071,6.071,0,0,0-3.247.69,1.9,1.9,0,0,0-1.109,1.9c.03.2-.227.352-.572.341s-.647-.184-.676-.384a2.4,2.4,0,0,1,1.4-2.4,7.656,7.656,0,0,1,4.1-.873c.345.012.648.184.677.384a.252.252,0,0,1-.146.249" transform="translate(11.838 3.613)" fill="#b8c9ff"/>
        <path id="Path_612" data-name="Path 612" d="M128.956,39.751a.8.8,0,0,1-.426.091c-.954-.033-1.665.389-1.584.942.029.2-.227.352-.572.34s-.648-.183-.676-.383c-.139-.95,1.084-1.678,2.728-1.622.345.012.648.184.677.384a.252.252,0,0,1-.146.249" transform="translate(12.098 3.765)" fill="#b8c9ff"/>
        <path id="Path_613" data-name="Path 613" d="M129.629,40.638c.419.237.471.6.117.809a1.547,1.547,0,0,1-1.4-.048c-.419-.236-.471-.6-.117-.809a1.547,1.547,0,0,1,1.4.048" transform="translate(12.321 3.893)" fill="#b8c9ff"/>
        <g id="Group_244" data-name="Group 244" transform="translate(67.773 98.49)" style="mix-blend-mode: multiply;isolation: isolate">
          <g id="Group_243" data-name="Group 243">
            <g id="Group_242" data-name="Group 242" clip-path="url(#clip-path-23)">
              <g id="Group_241" data-name="Group 241" transform="translate(0 0)">
                <g id="Group_240" data-name="Group 240" clip-path="url(#clip-path-24)">
                  <rect id="Rectangle_126" data-name="Rectangle 126" width="48.987" height="34.495" transform="translate(-5.697 0)" fill="url(#linear-gradient-11)"/>
                </g>
              </g>
            </g>
          </g>
        </g>
        <path id="Path_615" data-name="Path 615" d="M17.525,38.75l.257,46.822a9.364,9.364,0,0,0,4.51,8.018l57.676,34.278a5.389,5.389,0,0,0,8.062-4.874l-.253-46.129a10.827,10.827,0,0,0-5.23-9.28L25.578,33.871a5.388,5.388,0,0,0-8.053,4.878" transform="translate(1.687 3.189)" fill="#819bea"/>
        <path id="Path_616" data-name="Path 616" d="M16,39.827a5.388,5.388,0,0,1,8.053-4.878L32.4,39.893l27.223,77.872-27.5-16.344L16.079,55.12Z" transform="translate(1.54 3.293)" fill="#cfdbfe"/>
        <path id="Path_617" data-name="Path 617" d="M32.119,99.584,20.755,92.83a9.367,9.367,0,0,1-4.511-8.017l-.172-31.53Z" transform="translate(1.547 5.129)" fill="#b8c9ff"/>
        <path id="Path_618" data-name="Path 618" d="M80.278,68.578A9.364,9.364,0,0,1,84.8,76.6l.258,46.968A5.388,5.388,0,0,1,77,128.444L58.187,117.266,30.964,39.394Z" transform="translate(2.981 3.792)" fill="#b8c9ff"/>
        <path id="Path_619" data-name="Path 619" d="M74.926,95.611l-.015-2.877A1.893,1.893,0,0,0,74,91.115l-8.6-4.989a1.088,1.088,0,0,0-1.629.984l.015,2.905a1.9,1.9,0,0,0,.914,1.622L73.3,96.6a1.088,1.088,0,0,0,1.627-.986" transform="translate(6.138 8.276)" fill="#f4f7fe"/>
        <path id="Path_620" data-name="Path 620" d="M60.6,87.208l-.015-2.877a1.9,1.9,0,0,0-.911-1.619L51.07,77.723a1.089,1.089,0,0,0-1.629.984l.015,2.905a1.9,1.9,0,0,0,.914,1.622l8.6,4.958a1.088,1.088,0,0,0,1.627-.986" transform="translate(4.759 7.467)" fill="#f4f7fe"/>
        <path id="Path_621" data-name="Path 621" d="M46.279,78.805l-.015-2.877a1.893,1.893,0,0,0-.912-1.619L36.746,69.32a1.088,1.088,0,0,0-1.628.984l.015,2.905a1.893,1.893,0,0,0,.914,1.622l8.6,4.958a1.089,1.089,0,0,0,1.627-.986" transform="translate(3.38 6.658)" fill="#f4f7fe"/>
        <path id="Path_622" data-name="Path 622" d="M31.955,70.4l-.015-2.875a1.9,1.9,0,0,0-.912-1.62l-8.606-4.988a1.087,1.087,0,0,0-1.628.983l.015,2.905a1.9,1.9,0,0,0,.914,1.624l8.6,4.957a1.088,1.088,0,0,0,1.627-.986" transform="translate(2.002 5.849)" fill="#f4f7fe"/>
        <path id="Path_623" data-name="Path 623" d="M65.176,107.693c2.149,3.812,5.761,5.773,8.07,4.381s2.439-5.61.291-9.42c-1.891-3.355-5.469-5.948-8.07-4.381-2.309,1.391-2.439,5.61-.291,9.42" transform="translate(6.127 9.415)" fill="#f4f7fe"/>
        <path id="Path_624" data-name="Path 624" d="M48.757,97.745l-.01-1.785a1.173,1.173,0,0,0-.566-1.005L40.32,90.334a.676.676,0,0,0-1.011.611l.011,1.8a1.173,1.173,0,0,0,.567,1.005l7.86,4.6a.676.676,0,0,0,1.01-.612" transform="translate(3.784 8.686)" fill="#f4f7fe"/>
        <path id="Path_625" data-name="Path 625" d="M39.308,92.129,39.3,90.344a1.177,1.177,0,0,0-.567-1.005L21.8,79.4a.675.675,0,0,0-1.011.611l.01,1.8a1.174,1.174,0,0,0,.568,1.006L38.3,92.741a.675.675,0,0,0,1.01-.612" transform="translate(2.002 7.634)" fill="#f4f7fe"/>
        <path id="Path_626" data-name="Path 626" d="M20.852,55.268l-.058-10.724a1.235,1.235,0,0,1,1.845-1.117l9.728,5.73A2.168,2.168,0,0,1,33.4,51l.059,10.685A1.236,1.236,0,0,1,31.612,62.8L21.892,57.1a2.155,2.155,0,0,1-1.04-1.837" transform="translate(2.002 4.164)" fill="#f4f7fe"/>
        <path id="Path_627" data-name="Path 627" d="M20.829,50.963l0,.549,3.724,2.18.011,2.015a2.207,2.207,0,0,0,1.059,1.876L28.5,59.2a.778.778,0,0,0,.821-.023.828.828,0,0,0,.407-.74l-.01-1.721L33.443,58.9l0-.539-3.724-2.182-.023-4.085,3.725,2.182,0-.539-3.725-2.182-.007-1.249a2.2,2.2,0,0,0-1.05-1.875l-2.726-1.61a.951.951,0,0,0-.466-.13.881.881,0,0,0-.456.136.943.943,0,0,0-.46.825l0,.879L20.8,46.349l0,.539,3.725,2.18.022,4.076Zm4.15-3.315a.485.485,0,0,1,.235-.418.458.458,0,0,1,.466,0l2.726,1.61a1.723,1.723,0,0,1,.82,1.47l.045,8.132a.366.366,0,0,1-.181.332.354.354,0,0,1-.191.058.447.447,0,0,1-.183-.046l-2.865-1.619a1.7,1.7,0,0,1-.829-1.461Z" transform="translate(2.003 4.462)" fill="#819bea"/>
        <g id="Group_249" data-name="Group 249" transform="translate(146.867 57.593)" style="mix-blend-mode: multiply;isolation: isolate">
          <g id="Group_248" data-name="Group 248">
            <g id="Group_247" data-name="Group 247" clip-path="url(#clip-path-25)">
              <g id="Group_246" data-name="Group 246" transform="translate(0 0.001)">
                <g id="Group_245" data-name="Group 245" clip-path="url(#clip-path-26)">
                  <rect id="Rectangle_128" data-name="Rectangle 128" width="222.657" height="113.555" transform="translate(-12.907 -6.086)" fill="url(#linear-gradient-12)"/>
                </g>
              </g>
            </g>
          </g>
        </g>
        <path id="Path_629" data-name="Path 629" d="M331.718,57.495a13.6,13.6,0,0,1-5.34,15.377L298.72,91.559a13.576,13.576,0,0,1-13.939.759,13.912,13.912,0,0,0-15.106,1.121l-72.384,54.97c-11.773,8.876-27.121,9.612-40.263,1.927L115.894,126.06a24.626,24.626,0,0,1-8.068-7.952,25.532,25.532,0,0,0,10.251,12.113L159.21,154.5c13.141,7.684,28.49,6.949,40.263-1.927L271.857,97.6a13.91,13.91,0,0,1,15.105-1.121,13.578,13.578,0,0,0,13.939-.758l27.66-18.687a13.59,13.59,0,0,0,3.157-19.538" transform="translate(10.379 5.534)" fill="#819bea"/>
      </g>
    </g>
    <g id="Group_253" data-name="Group 253" transform="translate(115.204 0.066)">
      <g id="Group_252" data-name="Group 252" clip-path="url(#clip-path-27)">
        <rect id="Rectangle_131" data-name="Rectangle 131" width="229.113" height="163.488" transform="translate(-0.463 0)" fill="url(#linear-gradient-13)"/>
      </g>
    </g>
    <g id="Group_255" data-name="Group 255" transform="translate(115.204 0.066)">
      <g id="Group_254" data-name="Group 254" clip-path="url(#clip-path-27)">
        <rect id="Rectangle_132" data-name="Rectangle 132" width="229.113" height="163.488" transform="translate(-0.463 0)" fill="url(#linear-gradient-13)"/>
      </g>
    </g>
    <g id="Group_262" data-name="Group 262">
      <g id="Group_261" data-name="Group 261" clip-path="url(#clip-path)">
        <path id="Path_632" data-name="Path 632" d="M258.1,4.6c-12.151-7.106-27.742-5.738-38.628,2.471L112.639,88.35c-7.578,5.769-6.756,19.4,5.205,26.009l40.137,23.2c12.151,7.1,26.341,6.425,37.226-1.781L300.364,56.068c10.333-8.015,9.548-21.435,1.07-26.445Z" transform="translate(10.371 0)" fill="#e2e9fb"/>
        <path id="Path_633" data-name="Path 633" d="M256.509,4.484a34.262,34.262,0,0,0-37.4,2.392L115.415,85.77c-7.338,5.585-6.275,18.506,1.921,23.355l41.32,23.882c11.764,6.878,25.5,6.22,36.043-1.726l105.017-79.6c7.357-5.578,6.3-18.52-1.91-23.371Z" transform="translate(10.636 0.003)" fill="#343c6b"/>
        <path id="Path_634" data-name="Path 634" d="M154.781,134.16,120.426,114.3a1.926,1.926,0,0,0-2.89,1.67,3.927,3.927,0,0,0,1.961,3.4l34.356,19.859a1.927,1.927,0,0,0,2.89-1.67,3.926,3.926,0,0,0-1.961-3.4" transform="translate(11.314 10.977)" fill="#343c6b"/>
        <path id="Path_635" data-name="Path 635" d="M120.172,95.357c0,1.1,1.6,1.992,3.564,1.992s3.565-.891,3.565-1.992-1.6-1.993-3.565-1.993-3.564.892-3.564,1.993" transform="translate(11.568 8.987)" fill="#819bea"/>
        <path id="Path_636" data-name="Path 636" d="M136.5,104.879c0,1.1,1.6,1.993,3.564,1.993s3.565-.892,3.565-1.993-1.6-1.993-3.565-1.993-3.564.892-3.564,1.993" transform="translate(13.139 9.904)" fill="#819bea"/>
        <path id="Path_637" data-name="Path 637" d="M152.823,114.4c0,1.1,1.6,1.992,3.564,1.992s3.565-.891,3.565-1.992-1.6-1.993-3.565-1.993-3.564.892-3.564,1.993" transform="translate(14.711 10.82)" fill="#819bea"/>
        <path id="Path_638" data-name="Path 638" d="M211.037,114.927l9.626-7.352a1.026,1.026,0,0,1,1.636.7,2.093,2.093,0,0,1-.818,1.924l-9.626,7.352a1.026,1.026,0,0,1-1.636-.7,2.094,2.094,0,0,1,.818-1.924" transform="translate(20.234 10.335)" fill="#343c6b"/>
        <path id="Path_639" data-name="Path 639" d="M200.783,123.553c.161.918.873,1.324,1.587.908a2.466,2.466,0,0,0,1-2.417c-.162-.919-.873-1.324-1.587-.908a2.465,2.465,0,0,0-1,2.417" transform="translate(19.324 11.645)" fill="#343c6b"/>
        <path id="Path_640" data-name="Path 640" d="M205.059,120.292c.161.918.873,1.324,1.587.908a2.466,2.466,0,0,0,1-2.417c-.161-.919-.873-1.324-1.587-.908a2.465,2.465,0,0,0-1,2.417" transform="translate(19.736 11.331)" fill="#343c6b"/>
        <path id="Path_641" data-name="Path 641" d="M196.507,126.814c.161.918.873,1.324,1.587.908a2.466,2.466,0,0,0,1-2.417c-.161-.919-.873-1.324-1.587-.908a2.465,2.465,0,0,0-1,2.417" transform="translate(18.912 11.958)" fill="#343c6b"/>
        <path id="Path_642" data-name="Path 642" d="M186.008,33.277v85.711l65.549-49.976,15.124-11.532,18.907-14.415L266.681,32.478,251.557,24,220.708,6.716Z" transform="translate(17.905 0.646)" fill="#6990ff"/>
        <path id="Path_643" data-name="Path 643" d="M118.817,87.29l36.918,21.254,15.124,8.705,11.877,6.836,9.74-7.43V30.945l-21.617,16.53L155.735,59.05Z" transform="translate(11.437 2.979)" fill="#5278ff"/>
        <path id="Path_644" data-name="Path 644" d="M152.493,57.6v49.495l15.124,8.7V46.023Z" transform="translate(14.679 4.43)" fill="#6990ff"/>
        <path id="Path_645" data-name="Path 645" d="M250.692,25.224V63.093l15.124-11.532V33.7Z" transform="translate(24.131 2.428)" fill="#5278ff"/>
        <path id="Path_646" data-name="Path 646" d="M248.791,50.295a.63.63,0,0,0,.307-1.181l-12.611-7.073a.63.63,0,0,0-.615,1.1l12.611,7.073a.639.639,0,0,0,.308.08" transform="translate(22.674 4.039)" fill="#5278ff"/>
        <path id="Path_647" data-name="Path 647" d="M234.29,41.988a.63.63,0,0,0,.307-1.181L207.045,25.374a.63.63,0,1,0-.615,1.1l27.552,15.434a.632.632,0,0,0,.307.08" transform="translate(19.84 2.435)" fill="#5278ff"/>
        <path id="Path_648" data-name="Path 648" d="M235.363,60.43a.631.631,0,0,0,.308-1.181l-12.612-7.073a.63.63,0,0,0-.615,1.1l12.611,7.073a.627.627,0,0,0,.308.08" transform="translate(21.381 5.015)" fill="#5278ff"/>
        <path id="Path_649" data-name="Path 649" d="M220.862,52.123a.63.63,0,0,0,.308-1.181L193.617,35.508a.63.63,0,0,0-.615,1.1l27.551,15.434a.639.639,0,0,0,.308.08" transform="translate(18.547 3.41)" fill="#5278ff"/>
        <path id="Path_650" data-name="Path 650" d="M245.112,57.028a.63.63,0,0,0,.307-1.181L199.625,30.4a.63.63,0,0,0-.615,1.1L244.8,56.948a.636.636,0,0,0,.308.08" transform="translate(19.125 2.918)" fill="#5278ff"/>
        <g id="Group_260" data-name="Group 260" transform="translate(94.149 185.936)" style="mix-blend-mode: multiply;isolation: isolate">
          <g id="Group_259" data-name="Group 259">
            <g id="Group_258" data-name="Group 258" clip-path="url(#clip-path-30)">
              <g id="Group_257" data-name="Group 257" transform="translate(0 0)">
                <g id="Group_256" data-name="Group 256" clip-path="url(#clip-path-31)">
                  <rect id="Rectangle_133" data-name="Rectangle 133" width="109.147" height="72.974" transform="translate(-9.853 0)" fill="url(#linear-gradient-15)"/>
                </g>
              </g>
            </g>
          </g>
        </g>
        <path id="Path_652" data-name="Path 652" d="M174.672,216.627l-45.918,26.608a17.45,17.45,0,0,1-17.464.047L12.3,185.638l-6.359-3.7c-8.328-5.652-6.9-16.409-1.8-20.469.024-.047.047-.071.071-.071a3.281,3.281,0,0,1,.38-.238l46.78-20.587a17.547,17.547,0,0,1,17.488.047l65.026,31.7,41.386,23.01c6.074,3.205,8.4,15.222-.593,21.3" transform="translate(0 13.309)" fill="#b8c9ff"/>
        <path id="Path_653" data-name="Path 653" d="M172.366,211.735l-43.714,25.34a17.537,17.537,0,0,1-17.457.043l-103.7-60.06c-8.566-4.6-7.733-12.926-1.841-16.281l45.726-26.243a17.286,17.286,0,0,1,17.35-.078l105.841,60.833c5.828,3.375,5.895,12.21-2.2,16.446" transform="translate(0.11 12.722)" fill="#e8eefc"/>
        <path id="Path_654" data-name="Path 654" d="M171.322,210.591l-43.086,24.975a17.289,17.289,0,0,1-17.207.044l-102.21-59.2c-8.443-4.535-7.612-13.19-1.806-16.5L51.6,134.5a17.927,17.927,0,0,1,17.574-.079l104.318,59.958c5.743,3.327,5.81,12.034-2.171,16.209" transform="translate(0.247 12.722)" fill="#343c6b"/>
        <path id="Path_655" data-name="Path 655" d="M30.581,153.877a1.092,1.092,0,0,0,.544-.146L43.8,146.408a1.09,1.09,0,0,0-1.089-1.889l-12.676,7.323a1.09,1.09,0,0,0,.546,2.035" transform="translate(2.839 13.897)" fill="#445393"/>
        <path id="Path_656" data-name="Path 656" d="M11.623,173.712l30.738,17.77,34.42,19.886,16.249,9.386V152.267l-5.342-3.078-16.866-9.721Z" transform="translate(1.119 13.425)" fill="#5278ff"/>
        <path id="Path_657" data-name="Path 657" d="M82.391,149.143v68.485l18.329,10.565L160.1,193.9Z" transform="translate(7.931 14.356)" fill="#6990ff"/>
        <path id="Path_658" data-name="Path 658" d="M146.067,185.812V196.66L130.42,205.7V176.8Z" transform="translate(12.554 17.019)" fill="#5278ff"/>
        <path id="Path_659" data-name="Path 659" d="M45.378,151.983v41.029l-2.209-1.276-13.435-7.758V161.019l13.435-7.759Z" transform="translate(2.862 14.63)" fill="#6990ff"/>
        <path id="Path_660" data-name="Path 660" d="M37.394,168.024a.7.7,0,0,1-.362-1.3l10.931-6.279a.7.7,0,0,1,.7,1.207L37.733,167.93a.7.7,0,0,1-.339.094" transform="translate(3.531 15.435)" fill="#6990ff"/>
        <path id="Path_661" data-name="Path 661" d="M52.042,159.54a.7.7,0,0,1-.362-1.3l11.363-6.7a.7.7,0,0,1,.7,1.207l-11.364,6.7a.689.689,0,0,1-.339.094" transform="translate(4.941 14.578)" fill="#6990ff"/>
        <path id="Path_662" data-name="Path 662" d="M51.018,178.083a.7.7,0,0,1-.362-1.3L61.587,170.5a.7.7,0,0,1,.7,1.207l-10.931,6.279a.705.705,0,0,1-.339.094" transform="translate(4.843 16.403)" fill="#6990ff"/>
        <path id="Path_663" data-name="Path 663" d="M65.666,169.6a.7.7,0,0,1-.363-1.3l11.364-6.7a.7.7,0,0,1,.7,1.207L66,169.5a.7.7,0,0,1-.338.094" transform="translate(6.253 15.546)" fill="#6990ff"/>
        <path id="Path_664" data-name="Path 664" d="M43.708,173.688a.7.7,0,0,1-.362-1.3L70.5,156.714a.7.7,0,0,1,.7,1.207L44.047,173.593a.7.7,0,0,1-.339.094" transform="translate(4.139 15.076)" fill="#6990ff"/>
        <path id="Path_665" data-name="Path 665" d="M116.111,193.52a27.492,27.492,0,0,1-2.427-1.4c-.513-.322-.993-.65-1.524-1.013a11.394,11.394,0,0,0-8.416-1.746.958.958,0,0,1-.855-.246c-.155-.2-.024-.406.292-.466a13.582,13.582,0,0,1,9.9,2.03c.519.355.988.674,1.479.983.971.61,1.757,1.064,2.277,1.316a25.806,25.806,0,0,0,6.14,2.027,28.877,28.877,0,0,0,4.646.531c.352.012.664.189.7.394a.254.254,0,0,1-.151.262.809.809,0,0,1-.421.088,31.114,31.114,0,0,1-5.01-.573,27.871,27.871,0,0,1-6.624-2.187" transform="translate(9.898 18.138)" fill="#d2ddf9"/>
        <path id="Path_666" data-name="Path 666" d="M102.729,197.064c-.23-.158-.424-.287-.61-.409-1.017-.665-5.874-4.132-1.548-6.98a.969.969,0,0,1,.9.015c.28.149.333.385.118.526-1.544,1.015-1.9,2.234-1.051,3.622a8.6,8.6,0,0,0,2.478,2.373c.193.126.394.26.631.423,1.264.862,2.622,1.694,4.038,2.473a39.492,39.492,0,0,0,11.872,4.09l.637.115c.349.064.588.274.534.469a.3.3,0,0,1-.147.17.9.9,0,0,1-.583.07l-.637-.116a41.517,41.517,0,0,1-12.472-4.3c-1.457-.8-2.856-1.659-4.156-2.547" transform="translate(9.511 18.248)" fill="#d2ddf9"/>
        <path id="Path_667" data-name="Path 667" d="M120.933,192.442a12.859,12.859,0,0,1-4.2-2.287,12.685,12.685,0,0,0-1.777-1.244,20.452,20.452,0,0,0-9.793-2.563c-.35,0-.671-.175-.719-.38s.2-.368.547-.364a22.551,22.551,0,0,1,10.8,2.826,14.039,14.039,0,0,1,1.958,1.371,11.264,11.264,0,0,0,3.679,2.008,16.146,16.146,0,0,0,5.611.838.8.8,0,0,1,.758.353.248.248,0,0,1-.141.3.757.757,0,0,1-.351.088,18.369,18.369,0,0,1-6.369-.949" transform="translate(10.053 17.866)" fill="#d2ddf9"/>
        <path id="Path_668" data-name="Path 668" d="M94.786,194c-.132-.2.027-.4.354-.446a.917.917,0,0,1,.831.281c1.679,2.556,4.982,5.034,9.819,7.364a57.948,57.948,0,0,0,8.574,3.316c.337.092.523.316.418.5a.341.341,0,0,1-.125.117.942.942,0,0,1-.676.049,59.222,59.222,0,0,1-8.907-3.439c-5.05-2.434-8.512-5.038-10.287-7.742" transform="translate(9.12 18.63)" fill="#d2ddf9"/>
        <path id="Path_669" data-name="Path 669" d="M97.446,187.474a14.326,14.326,0,0,1,4.987-1.651.932.932,0,0,1,.839.27c.139.2-.011.4-.335.453a12.978,12.978,0,0,0-4.521,1.5c-2.027,1.171-3.091,2.805-3,4.6a.261.261,0,0,1-.153.236.822.822,0,0,1-.466.086c-.352-.026-.647-.213-.658-.417-.1-1.981,1.073-3.782,3.307-5.073" transform="translate(9.061 17.886)" fill="#d2ddf9"/>
        <path id="Path_670" data-name="Path 670" d="M123.026,189.061a19.542,19.542,0,0,0-3.806-2.855,28.81,28.81,0,0,0-6.272-2.692c-.332-.1-.5-.327-.383-.506a.784.784,0,0,1,.819-.145,30.675,30.675,0,0,1,6.669,2.862,20.833,20.833,0,0,1,4.045,3.034.252.252,0,0,1-.052.435.585.585,0,0,1-.137.056,1,1,0,0,1-.884-.19" transform="translate(10.832 17.598)" fill="#d2ddf9"/>
        <path id="Path_671" data-name="Path 671" d="M92.161,199.336c-.225-.178-.187-.406.084-.51a1.017,1.017,0,0,1,.9.13,34.263,34.263,0,0,0,4.115,2.793c.267.157.3.391.069.525a1,1,0,0,1-.9-.044,35.431,35.431,0,0,1-4.267-2.9" transform="translate(8.857 19.134)" fill="#d2ddf9"/>
        <path id="Path_672" data-name="Path 672" d="M90.219,198.242c-3.266-3.31-4.129-7.07-2.369-10.316.1-.185.456-.263.794-.174s.532.311.431.5c-1.655,3.053-.844,6.591,2.228,9.7a.249.249,0,0,1-.057.429.6.6,0,0,1-.146.059,1,1,0,0,1-.88-.2" transform="translate(8.37 18.069)" fill="#d2ddf9"/>
        <path id="Path_673" data-name="Path 673" d="M112.314,182.531a.3.3,0,0,1-.146.167.894.894,0,0,1-.588.069,34.726,34.726,0,0,0-10.057-.408,22.275,22.275,0,0,0-8.585,2.6,12.063,12.063,0,0,0-2.8,2.176.868.868,0,0,1-.856.088c-.316-.119-.445-.352-.289-.52a12.851,12.851,0,0,1,2.979-2.312,23.686,23.686,0,0,1,9.127-2.765,36.889,36.889,0,0,1,10.69.434c.349.065.584.275.527.47" transform="translate(8.56 17.463)" fill="#d2ddf9"/>
        <path id="Path_674" data-name="Path 674" d="M122.432,189.3l-.237-.186a25.556,25.556,0,0,0-11.608-4.951,27.61,27.61,0,0,0-13.113.707,10.992,10.992,0,0,0-4.206,2.216.869.869,0,0,1-.858.084c-.315-.121-.442-.354-.282-.521a11.646,11.646,0,0,1,4.593-2.442,29.6,29.6,0,0,1,14.05-.755,27.348,27.348,0,0,1,12.417,5.291l.229.18a5.839,5.839,0,0,0,3.372,1.085c.351.009.669.182.71.387a.254.254,0,0,1-.15.27.8.8,0,0,1-.409.088,7.82,7.82,0,0,1-4.508-1.451" transform="translate(8.861 17.611)" fill="#d2ddf9"/>
        <path id="Path_675" data-name="Path 675" d="M91.077,187.416a.838.838,0,0,1,.844-.107c.321.112.466.343.321.515a6.032,6.032,0,0,0-.641,7.012c1.722,3.336,6.005,6.581,12.729,9.644.3.136.387.372.2.526-.018.013-.036.026-.056.038a.985.985,0,0,1-.825-.005c-6.988-3.182-11.45-6.58-13.266-10.1a6.478,6.478,0,0,1,.7-7.526" transform="translate(8.615 18.024)" fill="#d2ddf9"/>
        <path id="Path_676" data-name="Path 676" d="M95.36,197.087a.25.25,0,0,1-.057.43.6.6,0,0,1-.146.058,1,1,0,0,1-.88-.2,7.22,7.22,0,0,1-2.425-5.808c.238-2,1.579-3.755,3.877-5.082,3.887-2.246,9.927-2.854,15.759-1.584a27.258,27.258,0,0,1,2.755.752c.327.109.48.338.344.512a.337.337,0,0,1-.105.089.957.957,0,0,1-.73.033,24.914,24.914,0,0,0-2.537-.693c-5.373-1.17-10.936-.611-14.517,1.459-2.118,1.223-3.352,2.841-3.572,4.681a6.649,6.649,0,0,0,2.233,5.351" transform="translate(8.838 17.736)" fill="#d2ddf9"/>
        <path id="Path_677" data-name="Path 677" d="M117.973,189.471a14,14,0,0,0-2.905-1.9l-.441-.221c-.285-.145-.351-.38-.145-.527a.958.958,0,0,1,.891,0l.438.221a15.265,15.265,0,0,1,3.169,2.076,9.222,9.222,0,0,0,6.251,1.892.819.819,0,0,1,.772.341.246.246,0,0,1-.136.315.754.754,0,0,1-.332.087,11.183,11.183,0,0,1-7.563-2.277" transform="translate(11.008 17.972)" fill="#d2ddf9"/>
        <path id="Path_678" data-name="Path 678" d="M96.509,197.709a1.02,1.02,0,0,1,.9.123,44.677,44.677,0,0,0,12.219,6.335c.33.1.5.329.374.508a.352.352,0,0,1-.114.1.943.943,0,0,1-.708.039,45.507,45.507,0,0,1-12.741-6.593c-.229-.175-.2-.4.069-.512" transform="translate(9.268 19.026)" fill="#d2ddf9"/>
        <path id="Path_679" data-name="Path 679" d="M108.585,201.123a.4.4,0,0,1-.076.056.981.981,0,0,1-.792.011,32.478,32.478,0,0,1-5.739-3.1c-.243-.17-.234-.4.022-.519a1.017,1.017,0,0,1,.9.1,30.673,30.673,0,0,0,5.429,2.931c.309.126.423.361.253.523" transform="translate(9.799 19.012)" fill="#d2ddf9"/>
        <path id="Path_680" data-name="Path 680" d="M99.238,188.513c3.12-1.8,8.471-1.949,13.013-.357a13.271,13.271,0,0,1,3.372,1.744,25.346,25.346,0,0,0,3.815,2.276c.3.136.387.371.2.525a.514.514,0,0,1-.056.039.985.985,0,0,1-.825-.005,26.211,26.211,0,0,1-4.076-2.426,11.605,11.605,0,0,0-2.953-1.53c-4.029-1.413-8.766-1.288-11.52.3-1.676.968-2.522,2.182-2.448,3.507.076,1.344,1.093,2.81,2.945,4.24.227.176.194.406-.076.511a1.016,1.016,0,0,1-.9-.126c-4.165-3.219-4.348-6.471-.49-8.7" transform="translate(9.286 18.006)" fill="#d2ddf9"/>
        <path id="Path_681" data-name="Path 681" d="M110.068,201.657a.85.85,0,0,1,.85-.1,45.719,45.719,0,0,0,5.373,1.6c.343.077.558.294.48.485a.3.3,0,0,1-.138.145.912.912,0,0,1-.627.061,47.614,47.614,0,0,1-5.633-1.681c-.319-.116-.456-.347-.3-.517" transform="translate(10.589 19.396)" fill="#d2ddf9"/>
        <path id="Path_682" data-name="Path 682" d="M119.371,192.961c.1-.185.455-.264.793-.175a29,29,0,0,0,6.009.795c.351.01.667.185.7.39a.252.252,0,0,1-.15.265.79.79,0,0,1-.415.088,31.289,31.289,0,0,1-6.507-.866c-.338-.089-.532-.311-.432-.5" transform="translate(11.488 18.554)" fill="#d2ddf9"/>
        <path id="Path_683" data-name="Path 683" d="M110.685,192.319c-.217-.18-.167-.407.111-.505a1.017,1.017,0,0,1,.9.146,18.559,18.559,0,0,0,3.9,2.252,28.516,28.516,0,0,0,11.037,2.391c.35.008.668.181.71.386a.254.254,0,0,1-.149.271.8.8,0,0,1-.409.088,30.9,30.9,0,0,1-11.905-2.592,19.576,19.576,0,0,1-4.19-2.436" transform="translate(10.641 18.459)" fill="#d2ddf9"/>
        <path id="Path_684" data-name="Path 684" d="M109.888,190.46c.312.122.434.354.273.52a.878.878,0,0,1-.861.079c-.149-.057-3.687-1.394-5.91.31-2.167,1.663.58,3.611,3.578,5.464l.407.252c.253.158.274.385.052.514a1.008,1.008,0,0,1-.919-.054c-.127-.08-.262-.163-.4-.25-2.354-1.455-6.737-4.162-3.777-6.433,2.293-1.76,5.946-1.033,7.559-.4" transform="translate(9.755 18.266)" fill="#d2ddf9"/>
        <path id="Path_685" data-name="Path 685" d="M108.62,197.841a.951.951,0,0,1,.888-.014,44.326,44.326,0,0,0,12.595,3.705c.352.048.613.251.582.451a.276.276,0,0,1-.151.194.868.868,0,0,1-.539.077,46.454,46.454,0,0,1-13.208-3.886c-.292-.141-.366-.377-.167-.526" transform="translate(10.445 19.033)" fill="#d2ddf9"/>
        <path id="Path_686" data-name="Path 686" d="M116.36,196.288a.866.866,0,0,1,.856-.087,31.034,31.034,0,0,0,8.145,1.483c.353.022.653.2.671.41a.256.256,0,0,1-.153.243.825.825,0,0,1-.453.087,32.7,32.7,0,0,1-8.777-1.617c-.318-.12-.445-.352-.289-.52" transform="translate(11.194 18.879)" fill="#d2ddf9"/>
        <path id="Path_687" data-name="Path 687" d="M105.958,192.938c-.2-.185-.132-.407.157-.5a1.012,1.012,0,0,1,.89.171,24,24,0,0,0,4.856,3.147,35.124,35.124,0,0,0,13.759,3.659c.353.022.653.205.673.409a.26.26,0,0,1-.153.246.816.816,0,0,1-.449.087,37.2,37.2,0,0,1-14.619-3.894,24.763,24.763,0,0,1-5.114-3.328" transform="translate(10.188 18.521)" fill="#d2ddf9"/>
        <path id="Path_688" data-name="Path 688" d="M104.319,193.884c-1.107-.868-.939-2,.375-2.527a4.676,4.676,0,0,1,2.364-.214,4.551,4.551,0,0,1,2.184.88,25.284,25.284,0,0,0,5.954,3.563c.307.128.415.362.242.523a.9.9,0,0,1-.87.06,26.91,26.91,0,0,1-6.324-3.779,2.723,2.723,0,0,0-1.306-.526,2.794,2.794,0,0,0-1.413.127.807.807,0,0,0-.223,1.513,32.872,32.872,0,0,0,9.328,5.193,52.1,52.1,0,0,0,9.635,2.256c.351.055.6.259.566.457a.283.283,0,0,1-.149.186.88.88,0,0,1-.555.075c-6.221-.961-12.877-2.355-19.807-7.788" transform="translate(9.971 18.393)" fill="#d2ddf9"/>
        <path id="Path_689" data-name="Path 689" d="M176.83,94.053A44.222,44.222,0,0,1,160,90.946a.5.5,0,1,1,.385-.921,43.185,43.185,0,0,0,16.444,3.031,48.456,48.456,0,0,0,7.751-.611.5.5,0,0,1,.57.412.5.5,0,0,1-.412.572,49.51,49.51,0,0,1-7.908.623" transform="translate(15.372 8.662)" fill="#445393"/>
        <path id="Path_690" data-name="Path 690" d="M190.12,92.7a.5.5,0,0,1-.184-.961c7.56-3.017,12.074-8.068,12.074-13.512a10.226,10.226,0,0,0-.594-3.425.5.5,0,1,1,.939-.332,11.232,11.232,0,0,1,.651,3.757c0,5.867-4.748,11.265-12.7,14.439a.513.513,0,0,1-.184.035" transform="translate(18.253 7.136)" fill="#445393"/>
        <path id="Path_691" data-name="Path 691" d="M202.271,71.471a.5.5,0,0,1-.36-.153c-4.968-5.187-14.128-8.283-24.5-8.283-9.306,0-17.665,2.49-22.933,6.831a.5.5,0,0,1-.634-.768c5.443-4.486,14.033-7.059,23.566-7.059,10.64,0,20.068,3.211,25.221,8.589a.5.5,0,0,1-.014.7.491.491,0,0,1-.345.139" transform="translate(14.791 5.972)" fill="#445393"/>
        <path id="Path_692" data-name="Path 692" d="M154.948,89.183a.5.5,0,0,1-.309-.107c-3.807-3.011-5.819-6.662-5.819-10.558a11.936,11.936,0,0,1,2.528-7.22.5.5,0,1,1,.8.594,10.972,10.972,0,0,0-2.331,6.626c0,3.579,1.881,6.96,5.441,9.776a.5.5,0,0,1-.309.889" transform="translate(14.325 6.844)" fill="#445393"/>
        <path id="Path_693" data-name="Path 693" d="M154.12,79.007c0,7.177,10.407,13,23.245,13s23.246-5.818,23.246-13-10.408-13-23.246-13-23.245,5.818-23.245,13" transform="translate(14.835 6.354)" fill="#445393"/>
        <path id="Path_694" data-name="Path 694" d="M178.194,84.718l-1.561-.046L165.816,72.487A35.352,35.352,0,0,1,156.9,49.018l-2.493-22.005,2.493-1.388a35.483,35.483,0,0,0,9.781,2.359,35.512,35.512,0,0,0,10.156-.5,73.84,73.84,0,0,0,8.887,11.589,73.764,73.764,0,0,0,10.636,9.353V67.056a17.662,17.662,0,0,1-18.169,17.662" transform="translate(14.863 2.467)" fill="#95abed"/>
      </g>
    </g>
    <g id="Group_264" data-name="Group 264" transform="translate(169.274 29.479)">
      <g id="Group_263" data-name="Group 263" clip-path="url(#clip-path-32)">
        <rect id="Rectangle_136" data-name="Rectangle 136" width="69.891" height="69.891" transform="translate(-29.691 29.691) rotate(-45)" fill="url(#linear-gradient-16)"/>
      </g>
    </g>
    <g id="Group_266" data-name="Group 266">
      <g id="Group_265" data-name="Group 265" clip-path="url(#clip-path)">
        <path id="Path_696" data-name="Path 696" d="M165.881,58.634c3.437,6.2,9.218,9.392,12.912,7.128s3.9-9.126.464-15.327c-3.025-5.457-8.75-9.679-12.911-7.128-3.693,2.265-3.9,9.126-.465,15.327" transform="translate(15.732 4.095)" fill="#9cb4ff"/>
        <path id="Path_697" data-name="Path 697" d="M173.641,218.927a2.553,2.553,0,1,0,2.677,2.419,2.551,2.551,0,0,0-2.677-2.419" transform="translate(16.481 21.073)" fill="#819bea"/>
        <path id="Path_698" data-name="Path 698" d="M12.688,196.383a2.553,2.553,0,1,0,2.677,2.419,2.551,2.551,0,0,0-2.677-2.419" transform="translate(0.988 18.903)" fill="#cfdbfe"/>
        <path id="Path_699" data-name="Path 699" d="M250.833,137.693a3.789,3.789,0,1,0,3.973,3.591,3.788,3.788,0,0,0-3.973-3.591" transform="translate(23.799 13.254)" fill="#fff"/>
        <path id="Path_700" data-name="Path 700" d="M290.7,15.219a2.552,2.552,0,1,0,2.449,2.651,2.552,2.552,0,0,0-2.449-2.651" transform="translate(27.727 1.465)" fill="#cfdbfe"/>
        <path id="Path_701" data-name="Path 701" d="M258.981,153.4a.654.654,0,0,0,.543-.749,4.536,4.536,0,0,1,6.082-4.973,5.839,5.839,0,0,0,7.817-6.465.651.651,0,0,0-.751-.531.661.661,0,0,0-.431.274.624.624,0,0,0-.1.48,4.536,4.536,0,0,1-6.074,5.021,5.775,5.775,0,0,0-5.761.939,5.846,5.846,0,0,0-1.354,1.575,5.68,5.68,0,0,0-.442.943,5.877,5.877,0,0,0-.273,2.945.655.655,0,0,0,.744.539" transform="translate(24.85 13.541)" fill="#cfdbfe"/>
        <path id="Path_702" data-name="Path 702" d="M268.353,4.7a.652.652,0,0,0,.913-.146,4.532,4.532,0,0,1,7.814.788,5.836,5.836,0,0,0,10.1.961.649.649,0,0,0,.109-.49.642.642,0,0,0-.265-.418.657.657,0,0,0-.5-.11.615.615,0,0,0-.412.267,4.534,4.534,0,0,1-7.843-.748A5.777,5.777,0,0,0,273.531,1.4a5.839,5.839,0,0,0-2.071.157,5.653,5.653,0,0,0-.978.353A5.86,5.86,0,0,0,268.209,3.8a.654.654,0,0,0,.145.907" transform="translate(25.806 0.131)" fill="#6990ff"/>
        <path id="Path_703" data-name="Path 703" d="M204.55,240.331a.652.652,0,0,0-.876-.3,4.535,4.535,0,0,1-6.551-4.335,5.839,5.839,0,0,0-8.491-5.55.645.645,0,0,0-.323.384.639.639,0,0,0,.041.492.657.657,0,0,0,.389.329.616.616,0,0,0,.489-.045,4.535,4.535,0,0,1,6.6,4.312,5.782,5.782,0,0,0,2.607,5.227,5.862,5.862,0,0,0,1.905.826,5.771,5.771,0,0,0,1.03.143,5.855,5.855,0,0,0,2.891-.615.654.654,0,0,0,.294-.87" transform="translate(18.123 22.091)" fill="#cfdbfe"/>
        <path id="Path_704" data-name="Path 704" d="M15.434,216.872a.654.654,0,0,0,.543-.749,4.535,4.535,0,0,1,6.082-4.973,5.84,5.84,0,0,0,7.819-6.465.652.652,0,0,0-.752-.531.659.659,0,0,0-.43.274.62.62,0,0,0-.1.48,4.537,4.537,0,0,1-6.073,5.022,5.774,5.774,0,0,0-5.762.938,5.865,5.865,0,0,0-1.354,1.575,5.7,5.7,0,0,0-.442.942,5.872,5.872,0,0,0-.272,2.946.653.653,0,0,0,.743.539" transform="translate(1.407 19.651)" fill="#6990ff"/>
        <path id="Path_705" data-name="Path 705" d="M117.578,57.509a2.553,2.553,0,1,0,2.677,2.419,2.552,2.552,0,0,0-2.677-2.419" transform="translate(11.085 5.535)" fill="#819bea"/>
        <path id="Path_706" data-name="Path 706" d="M110.035,69.982a.653.653,0,0,0-.889-.255A4.535,4.535,0,0,1,102.4,65.7a5.838,5.838,0,0,0-8.737-5.15.653.653,0,0,0,.161,1.2.617.617,0,0,0,.487-.068,4.535,4.535,0,0,1,6.787,4,5.866,5.866,0,0,0,4.788,5.836,5.587,5.587,0,0,0,1.036.1,5.859,5.859,0,0,0,2.859-.75.653.653,0,0,0,.253-.882" transform="translate(8.984 5.753)" fill="#cfdbfe"/>
        <path id="Path_707" data-name="Path 707" d="M222.276,78.251a.524.524,0,0,1-.52-.525l.039-10.719a.523.523,0,0,1,.847-.408l6.757,5.385a.524.524,0,0,1,0,.821l-6.8,5.334a.527.527,0,0,1-.325.112m.56-10.161-.032,8.561,5.429-4.26Z" transform="translate(21.346 6.4)" fill="#c6d4ff"/>
      </g>
    </g>
  </g>
</svg>
