<svg xmlns="http://www.w3.org/2000/svg" xmlns:xlink="http://www.w3.org/1999/xlink" width="60" height="60" viewBox="0 0 60 60">
  <defs>
    <clipPath id="clip-path">
      <path id="Path_714" data-name="Path 714" d="M0,0H60V60H0Z" fill="none"/>
    </clipPath>
  </defs>
  <g id="price_icon_4" clip-path="url(#clip-path)">
    <path id="Path_713" data-name="Path 713" d="M46.5,6.62a13.328,13.328,0,0,0-9.425,3.825L19.5,26.045a8.465,8.465,0,1,1-6-14.425,8.5,8.5,0,0,1,6.1,2.575l2.825,2.5,3.775-3.35L23.05,10.57A13.449,13.449,0,1,0,22.925,29.7L40.5,14.095a8.465,8.465,0,1,1,6,14.425,8.541,8.541,0,0,1-6.1-2.575L37.55,23.42l-3.775,3.35,3.175,2.8A13.473,13.473,0,1,0,46.5,6.62Z" transform="translate(0 9.93)" fill="#0f2844"/>
  </g>
</svg>
