<svg xmlns="http://www.w3.org/2000/svg" width="26" height="30" viewBox="0 0 26 30">
  <path id="price_icon_5" d="M21.454,7.038a6.967,6.967,0,0,0-13.907,0A8.984,8.984,0,0,0,1.5,15.5v12a3,3,0,0,0,3,3h20a3,3,0,0,0,3-3v-12a8.984,8.984,0,0,0-6.047-8.462ZM14.5,2.5a5,5,0,0,1,4.908,4.092A8.837,8.837,0,0,0,18.5,6.5h-8a8.838,8.838,0,0,0-.908.092A5,5,0,0,1,14.5,2.5Zm10,26H4.5a1,1,0,0,1-1-1v-3h22v3a1,1,0,0,1-1,1Zm1-6H3.5v-7a6.99,6.99,0,0,1,4-6.3v2.3a1,1,0,1,0,2,0V8.6a6.928,6.928,0,0,1,1-.1h8a6.928,6.928,0,0,1,1,.1v2.9a1,1,0,1,0,2,0V9.2a6.99,6.99,0,0,1,4,6.3Z" transform="translate(-1.5 -0.5)" fill="#0f2844"/>
</svg>
