<svg xmlns="http://www.w3.org/2000/svg" width="30" height="30" viewBox="0 0 30 30">
  <path id="price_icon_1" d="M11.2,0H18.8c1.7,0,3.059,0,4.152.089A7.7,7.7,0,0,1,25.9.817,7.5,7.5,0,0,1,29.183,4.1a7.7,7.7,0,0,1,.728,2.948C30,8.136,30,9.491,30,11.2V18.8c0,1.7,0,3.059-.089,4.152a7.7,7.7,0,0,1-.728,2.948A7.5,7.5,0,0,1,25.9,29.183a7.7,7.7,0,0,1-2.948.728C21.864,30,20.508,30,18.8,30H11.2c-1.7,0-3.059,0-4.152-.089A7.7,7.7,0,0,1,4.1,29.183,7.5,7.5,0,0,1,.817,25.9a7.7,7.7,0,0,1-.728-2.948C0,21.864,0,20.508,0,18.8V11.2c0-1.7,0-3.059.089-4.152A7.7,7.7,0,0,1,.817,4.1,7.5,7.5,0,0,1,4.1.817,7.7,7.7,0,0,1,7.043.089C8.136,0,9.492,0,11.2,0ZM7.247,2.581a5.282,5.282,0,0,0-2.017.464A5,5,0,0,0,3.045,5.23a5.282,5.282,0,0,0-.464,2.017c-.08.98-.081,2.232-.081,4v7.5c0,1.771,0,3.024.081,4a5.282,5.282,0,0,0,.464,2.017A5,5,0,0,0,5.23,26.955a5.282,5.282,0,0,0,2.017.464c.979.08,2.232.081,4,.081h7.5c1.771,0,3.024,0,4-.081a5.283,5.283,0,0,0,2.017-.464,5,5,0,0,0,2.185-2.185,5.283,5.283,0,0,0,.464-2.017c.08-.979.081-2.232.081-4v-7.5c0-1.771,0-3.024-.081-4a5.282,5.282,0,0,0-.464-2.017A5,5,0,0,0,24.77,3.045a5.282,5.282,0,0,0-2.017-.464c-.979-.08-2.232-.081-4-.081h-7.5c-1.771,0-3.024,0-4,.081ZM12.5,6.25A1.25,1.25,0,0,1,13.75,7.5v15a1.25,1.25,0,0,1-2.5,0V7.5A1.25,1.25,0,0,1,12.5,6.25Zm5,3.75a1.25,1.25,0,0,1,1.25,1.25V22.5a1.25,1.25,0,0,1-2.5,0V11.25A1.25,1.25,0,0,1,17.5,10Zm5,3.75A1.25,1.25,0,0,1,23.75,15v7.5a1.25,1.25,0,0,1-2.5,0V15A1.25,1.25,0,0,1,22.5,13.75ZM7.5,17.5a1.25,1.25,0,0,1,1.25,1.25V22.5a1.25,1.25,0,0,1-2.5,0V18.75A1.25,1.25,0,0,1,7.5,17.5Z" fill="#0f2844" fill-rule="evenodd"/>
</svg>
