<svg xmlns="http://www.w3.org/2000/svg" xmlns:xlink="http://www.w3.org/1999/xlink" width="500" zoomAndPan="magnify" viewBox="0 0 375 374.999991" height="500" preserveAspectRatio="xMidYMid meet" version="1.2"><defs><clipPath id="7a31cd0f0c"><path d="M 73.65625 187 L 122 187 L 122 272 L 73.65625 272 Z M 73.65625 187 "/></clipPath><clipPath id="64a14d9268"><path d="M 253 79.773438 L 301 79.773438 L 301 272 L 253 272 Z M 253 79.773438 "/></clipPath><clipPath id="2174ec9a3b"><path d="M 73.65625 283 L 301 283 L 301 295.023438 L 73.65625 295.023438 Z M 73.65625 283 "/></clipPath></defs><g id="0d526182ec"><path style=" stroke:none;fill-rule:nonzero;fill:#e2e8f0;fill-opacity:1;" d="M 193.445312 4.414062 L 216.847656 7.320312 C 263.757812 17.730469 300.390625 42.925781 326.75 82.898438 C 353.070312 123.140625 362.171875 169.378906 354.0625 221.613281 C 343.945312 271.34375 319.929688 310.277344 282.015625 338.425781 C 269.761719 347.4375 256.546875 354.699219 242.367188 360.203125 L 220.59375 366.945312 C 205.667969 370.492188 190.214844 371.871094 174.230469 371.082031 C 125.261719 367.199219 85.394531 347.164062 54.640625 310.96875 C 23.882812 274.773438 9.246094 230.675781 10.730469 178.675781 C 14.691406 126.804688 33.855469 84.476562 68.226562 51.695312 C 102.597656 18.914062 144.339844 3.15625 193.445312 4.414062 "/><g clip-rule="nonzero" clip-path="url(#7a31cd0f0c)"><path style=" stroke:none;fill-rule:nonzero;fill:#1d3557;fill-opacity:1;" d="M 73.785156 187.398438 L 121.621094 187.398438 L 121.621094 271.105469 L 73.785156 271.105469 Z M 73.785156 187.398438 "/></g><path style=" stroke:none;fill-rule:nonzero;fill:#1d3557;fill-opacity:1;" d="M 133.578125 151.523438 L 181.410156 151.523438 L 181.410156 271.105469 L 133.578125 271.105469 Z M 133.578125 151.523438 "/><path style=" stroke:none;fill-rule:nonzero;fill:#1d3557;fill-opacity:1;" d="M 193.371094 115.648438 L 241.203125 115.648438 L 241.203125 271.105469 L 193.371094 271.105469 Z M 193.371094 115.648438 "/><g clip-rule="nonzero" clip-path="url(#64a14d9268)"><path style=" stroke:none;fill-rule:nonzero;fill:#1d3557;fill-opacity:1;" d="M 253.160156 79.773438 L 300.996094 79.773438 L 300.996094 271.105469 L 253.160156 271.105469 Z M 253.160156 79.773438 "/></g><g clip-rule="nonzero" clip-path="url(#2174ec9a3b)"><path style=" stroke:none;fill-rule:nonzero;fill:#1d3557;fill-opacity:1;" d="M 73.785156 283.066406 L 300.996094 283.066406 L 300.996094 295.023438 L 73.785156 295.023438 Z M 73.785156 283.066406 "/></g></g></svg>