<svg xmlns="http://www.w3.org/2000/svg" width="21.571" height="24" viewBox="0 0 21.571 24">
  <g id="copy_icon" transform="translate(-7.307 -2.5)">
    <path id="Path_55" data-name="Path 55" d="M22.744,39.16v4.188a1.3,1.3,0,0,1-1.3,1.3H8.6a1.3,1.3,0,0,1-1.3-1.3V28.076a1.3,1.3,0,0,1,1.3-1.3h4.188V37.072A2.087,2.087,0,0,0,14.88,39.16h7.864Z" transform="translate(0 -18.145)" fill="#0f2844"/>
    <path id="Path_56" data-name="Path 56" d="M41.239,21.664H29.188a2.74,2.74,0,0,1-2.737-2.737V4.446A1.948,1.948,0,0,1,28.4,2.5h9.172a.649.649,0,0,1,.458.19L43,7.656a.649.649,0,0,1,.19.459v11.6A1.948,1.948,0,0,1,41.239,21.664ZM28.4,3.8a.649.649,0,0,0-.649.649V18.927a1.442,1.442,0,0,0,1.44,1.44H41.239a.649.649,0,0,0,.649-.649V8.384L37.3,3.8Z" transform="translate(-14.307)" fill="#0f2844"/>
    <path id="Path_57" data-name="Path 57" d="M75.425,10.034H71.754a1.3,1.3,0,0,1-1.3-1.3V5.068Z" transform="translate(-47.196 -1.919)" fill="#0f2844"/>
    <path id="Path_58" data-name="Path 58" d="M49.781,39.163H41.743a.649.649,0,0,1,0-1.3h8.037a.649.649,0,1,1,0,1.3Z" transform="translate(-25.252 -26.431)" fill="#0f2844"/>
    <path id="Path_59" data-name="Path 59" d="M49.781,54.871H41.743a.649.649,0,0,1,0-1.3h8.037a.649.649,0,0,1,0,1.3Z" transform="translate(-25.252 -38.171)" fill="#0f2844"/>
  </g>
</svg>
